<svg xmlns="http://www.w3.org/2000/svg">

  <symbol id="user" viewBox="0 0 19 21">
    <path fill-rule="evenodd" clip-rule="evenodd"
      d="M4.31474 14.7917C3.02936 15.4812 2.45682 16.2966 2.45682 16.9923C2.45682 17.3255 2.58072 17.5682 2.81311 17.7789C3.06872 18.0106 3.49097 18.2321 4.12251 18.417C5.39552 18.7898 7.22157 18.9312 9.31353 18.9312C11.4156 18.9312 13.2406 18.7848 14.5094 18.4081C15.1388 18.2212 15.5593 17.9981 15.8141 17.765C16.0463 17.5525 16.1702 17.3076 16.1702 16.9729C16.1702 16.2813 15.5967 15.4705 14.3066 14.7841C13.046 14.1134 11.2672 13.6658 9.31353 13.6658C7.34909 13.6658 5.57156 14.1175 4.31474 14.7917ZM3.29051 13.3357C4.88902 12.4782 7.02904 11.957 9.31353 11.957C11.5853 11.957 13.7241 12.4732 15.3247 13.3248C16.8957 14.1606 18.1271 15.4305 18.1271 16.9729C18.1271 17.7552 17.8027 18.4203 17.2297 18.9447C16.6793 19.4484 15.9378 19.7888 15.1394 20.0259C13.553 20.4969 11.4604 20.64 9.31353 20.64C7.18005 20.64 5.08854 20.5022 3.50035 20.0371C2.7013 19.8031 1.95704 19.4659 1.40378 18.9644C0.827312 18.4418 0.5 17.7766 0.5 16.9923C0.5 15.4528 1.72056 14.1778 3.29051 13.3357Z"
      fill="white" />
    <path fill-rule="evenodd" clip-rule="evenodd"
      d="M3.31276 5.23908C3.31351 2.34584 6.00034 0 9.31371 0C12.6275 0 15.3146 2.34649 15.3146 5.24029C15.3146 8.13437 12.6272 10.4794 9.31371 10.4794H9.27848L9.27525 10.4794C5.97021 10.4699 3.30418 8.12218 3.31276 5.23908ZM3.31276 5.23908C3.31277 5.23868 3.31277 5.23828 3.31277 5.23787L4.29118 5.24029H3.31276C3.31276 5.23988 3.31276 5.23948 3.31276 5.23908ZM9.31371 1.70879C7.08059 1.70879 5.26959 3.29024 5.26959 5.24029V5.2427H5.26958C5.2633 7.1842 7.05768 8.76348 9.28012 8.77065H9.31371C11.5471 8.77065 13.3578 7.19005 13.3578 5.24029C13.3578 3.29023 11.5468 1.70879 9.31371 1.70879Z"
      fill="white" />
  </symbol>

  <symbol id="arrow-down" viewBox="0 0 9 6">
    <path d="M1 1L4.5 5L8 1" stroke="#F2F2F2" />
  </symbol>

  <symbol id="russian-flag" viewBox="0 0 25 14">
    <path
      d="M24.1026 11.0457C24.1026 11.5784 23.8204 12.0892 23.3182 12.4659C22.816 12.8426 22.1348 13.0542 21.4245 13.0542H2.67807C1.9678 13.0542 1.28662 12.8426 0.784388 12.4659C0.282153 12.0892 0 11.5784 0 11.0457V9.03711H24.1026V11.0457Z"
      fill="#CE2028" />
    <path d="M0 4.01758H24.1026V9.03895H0V4.01758Z" fill="#22408C" />
    <path
      d="M21.4245 0H2.67807C1.9678 0 1.28662 0.211614 0.784388 0.58829C0.282153 0.964966 0 1.47585 0 2.00855L0 4.0171H24.1026V2.00855C24.1026 1.47585 23.8204 0.964966 23.3182 0.58829C22.816 0.211614 22.1348 0 21.4245 0Z"
      fill="#EEEEEE" />
  </symbol>

  <symbol id="arrow-left" viewBox="0 0 14 11">
    <path
      d="M14 4.75847H2.91039L6.93462 1.32457L5.85956 0.407227L0 5.40723L5.85956 10.4072L6.93462 9.48988L2.91039 6.05599H14V4.75847Z"
      fill="white" />
  </symbol>

  <symbol id="arrow-right" viewBox="0 0 14 11">
    <path
      d="M0 4.75847H11.0896L7.06538 1.32457L8.14044 0.407227L14 5.40723L8.14044 10.4072L7.06538 9.48988L11.0896 6.05599H0V4.75847Z"
      fill="white" />
  </symbol>

  <symbol id="circle" viewBox="0 0 15 16">
    <circle cx="7.5" cy="8.40723" r="7" fill="#333333" stroke="white" />
  </symbol>

  <symbol id="wrestlers" viewBox="0 0 67 61">
    <path
      d="M27.5437 9.84324C27.9277 9.4933 28.2291 9.06355 28.4265 8.58466C28.6239 8.10576 28.7123 7.58953 28.6856 7.0728C28.6856 6.07084 28.2845 5.10993 27.5707 4.40144C26.8569 3.69295 25.8888 3.29492 24.8793 3.29492C23.8698 3.29492 22.9016 3.69295 22.1878 4.40144C21.474 5.10993 21.073 6.07084 21.073 7.0728"
      stroke="white" stroke-miterlimit="10" stroke-linecap="round" />
    <path
      d="M38.1831 17.862L46.2867 26.866C46.7183 27.4223 46.9911 28.0838 47.0764 28.7809C47.1617 29.478 47.0563 30.185 46.7713 30.8277L41.8105 39.7108C41.1474 41.1175 40.6993 42.6144 40.4808 44.1523L39.3922 57.3572C39.3395 57.6347 39.3455 57.92 39.4099 58.1951C39.4743 58.4701 39.5957 58.7288 39.7664 58.9547C39.937 59.1806 40.1532 59.3688 40.4012 59.5072C40.6491 59.6456 40.9234 59.7313 41.2066 59.7587C41.8252 59.6754 42.4061 59.4154 42.8785 59.0102C43.3509 58.6051 43.6944 58.0723 43.8672 57.4769L46.1649 47.7539C46.6105 46.2332 47.2613 44.7794 48.0997 43.432L51.3655 38.9904C52.3259 37.7179 53.4207 36.551 54.6313 35.5098L58.1382 32.6272C59.2141 31.5742 59.8603 30.1638 59.9525 28.6668C59.8715 27.1401 59.3226 25.6743 58.3792 24.4658L49.0665 14.2617"
      stroke="white" stroke-linecap="round" stroke-linejoin="round" />
    <path
      d="M59.9549 29.8691L60.9229 40.6739C61.1287 42.2556 61.4519 43.8201 61.8897 45.3547L65.3979 55.1985C65.8813 56.3986 65.3979 57.4791 64.4298 57.4791C63.8094 57.3699 63.2193 57.1317 62.6982 56.7801C62.1771 56.4285 61.7368 55.9715 61.4063 55.4391L56.3262 46.3155C55.6237 44.9033 55.0959 43.412 54.7542 41.874L53.908 37.0723"
      stroke="white" stroke-linecap="round" stroke-linejoin="round" />
    <path
      d="M49.0677 14.2578C46.6495 11.8564 43.8683 11.1373 41.8104 11.8564C37.8869 13.1192 33.8288 13.9251 29.7179 14.2578C26.2224 13.9526 22.8769 12.7074 20.041 10.6562"
      stroke="white" stroke-linecap="round" stroke-linejoin="round" />
    <path
      d="M20.4039 21.7041L15.6879 26.9869C15.2512 27.5625 14.9486 28.2272 14.8021 28.933C14.6555 29.6388 14.6686 30.3681 14.8404 31.0682L18.1062 40.9121C18.5524 42.432 18.7566 44.0117 18.7114 45.5942L18.1062 57.599C18.0946 58.192 17.8682 58.7611 17.4683 59.2019C17.0685 59.6427 16.522 59.9258 15.929 59.9992C15.3276 59.9459 14.7688 59.6686 14.365 59.2231C13.9611 58.7776 13.742 58.1969 13.7518 57.5977L13.0261 46.7943C12.8665 45.2204 12.4585 43.6812 11.8169 42.2331L10.3655 39.231C9.60533 37.844 8.62514 36.5875 7.46254 35.5098L3.95569 32.6285C2.87973 31.5754 2.2336 30.165 2.14136 28.668C2.22213 27.1409 2.77105 25.6747 3.71462 24.4658L13.0273 14.2617"
      stroke="white" stroke-linecap="round" stroke-linejoin="round" />
    <path
      d="M3.10846 32.2715V41.8748C3.06774 43.485 2.90659 45.09 2.62633 46.6765L1.05307 55.0798C0.812003 56.3995 1.41593 57.48 2.384 57.48C2.97998 57.3742 3.53401 57.1043 3.98289 56.7011C4.43178 56.2978 4.75746 55.7775 4.92279 55.1994L7.22178 47.757C7.58465 46.436 8.06805 44.3947 8.31038 43.075L9.15664 38.2733"
      stroke="white" stroke-linecap="round" stroke-linejoin="round" />
    <path d="M16.5345 11.6211C15.1791 12.227 13.9797 13.1298 13.0264 14.2618" stroke="white" stroke-linecap="round"
      stroke-linejoin="round" />
    <path
      d="M18.9526 15.4631C18.9526 15.4631 24.879 20.2648 27.2985 20.2648C28.5077 20.2648 30.9272 20.2648 32.1363 14.2617"
      stroke="white" stroke-miterlimit="10" stroke-linecap="round" />
    <path
      d="M36.9737 8.55575C39.0759 8.55575 40.78 6.86434 40.78 4.77788C40.78 2.69141 39.0759 1 36.9737 1C34.8716 1 33.1674 2.69141 33.1674 4.77788C33.1674 6.86434 34.8716 8.55575 36.9737 8.55575Z"
      stroke="white" stroke-miterlimit="10" />
  </symbol>

  <symbol id="mobile-phone" fill="white" viewBox="0 0 41 71">
    <path
      d="M5.46582 0.0203009C5.60008 0.0193416 5.73433 0.0183822 5.87266 0.0173938C6.31884 0.0148831 6.76492 0.0162844 7.2111 0.0177064C7.5325 0.0167308 7.85389 0.0155226 8.17529 0.0141002C9.04573 0.010998 9.91614 0.0113982 10.7866 0.0126252C11.6065 0.0134218 12.4264 0.0120809 13.2462 0.0109279C14.9694 0.00864158 16.6925 0.00983929 18.4157 0.0121691C19.9892 0.0141983 21.5627 0.0121792 23.1362 0.00819514C24.7552 0.00412682 26.3741 0.00262187 27.9931 0.00393836C28.9007 0.00461809 29.8083 0.00431926 30.7159 0.00148141C31.5697 -0.00106029 32.4233 -0.000223574 33.2771 0.00316648C33.5896 0.00385627 33.902 0.00338134 34.2145 0.00162658C36.2176 -0.00872856 37.9296 0.00642032 39.4585 1.4813C40.9451 3.13086 41.0041 4.9125 40.9955 7.0332C40.996 7.28868 40.9966 7.54416 40.9974 7.79963C40.9992 8.49881 40.9983 9.19797 40.997 9.89716C40.9961 10.6523 40.9975 11.4074 40.9987 12.1626C41.0005 13.6408 41.0001 15.119 40.9989 16.5972C40.998 17.7987 40.9979 19.0002 40.9983 20.2018C40.9984 20.3729 40.9984 20.544 40.9985 20.7202C40.9986 21.0678 40.9988 21.4154 40.9989 21.763C41.0001 24.9285 40.9989 28.094 40.9967 31.2595C40.9947 34.1473 40.9949 37.0351 40.9969 39.9229C40.9991 43.1697 41 46.4165 40.9987 49.6633C40.9986 50.0097 40.9984 50.356 40.9983 50.7023C40.9983 50.8727 40.9982 51.043 40.9981 51.2186C40.9978 52.4185 40.9984 53.6183 40.9993 54.8182C41.0005 56.2808 41.0002 57.7433 40.998 59.2058C40.9969 59.9518 40.9965 60.6978 40.9978 61.4438C40.9991 62.1271 40.9984 62.8104 40.9962 63.4937C40.9957 63.7405 40.996 63.9873 40.997 64.234C41.0047 66.2824 40.83 67.8449 39.4235 69.4314C38.3331 70.4846 37.0246 70.8975 35.5342 70.8837C35.3999 70.8847 35.2657 70.8856 35.1273 70.8866C34.6812 70.8891 34.2351 70.8877 33.7889 70.8863C33.4675 70.8873 33.1461 70.8885 32.8247 70.8899C31.9543 70.893 31.0839 70.8926 30.2134 70.8914C29.3935 70.8906 28.5736 70.8919 27.7538 70.8931C26.0306 70.8954 24.3075 70.8942 22.5843 70.8919C21.0108 70.8898 19.4373 70.8918 17.8638 70.8958C16.2448 70.8999 14.6259 70.9014 13.0069 70.9001C12.0993 70.8994 11.1917 70.8997 10.2841 70.9025C9.43032 70.9051 8.57666 70.9043 7.72292 70.9009C7.41045 70.9002 7.09797 70.9007 6.7855 70.9024C4.78236 70.9128 3.07038 70.8976 1.54147 69.4227C0.0548715 67.7732 -0.00413645 65.9915 0.00452108 63.8708C0.00404311 63.6153 0.00338446 63.3599 0.00256201 63.1044C0.000837149 62.4052 0.00168514 61.7061 0.0029709 61.0069C0.00391008 60.2517 0.00246047 59.4966 0.00132166 58.7414C-0.000519587 57.2632 -0.000123589 55.785 0.00107822 54.3068C0.00201459 53.1053 0.00214079 51.9038 0.00168997 50.7023C0.00162647 50.5312 0.00156307 50.3601 0.00149765 50.1838C0.00136516 49.8362 0.00123074 49.4886 0.00109456 49.141C-5.3011e-05 45.9755 0.00113667 42.81 0.00330865 39.6445C0.00527505 36.7567 0.00509884 33.8689 0.00311738 30.9811C0.000897038 27.7343 2.69278e-05 24.4875 0.001299 21.2407C0.001431 20.8944 0.00156145 20.5481 0.00168997 20.2018C0.0017539 20.0314 0.00181801 19.861 0.00188387 19.6854C0.00224145 18.4856 0.00163802 17.2857 0.000662487 16.0858C-0.000500459 14.6233 -0.000183669 13.1607 0.00202193 11.6982C0.00310992 10.9522 0.00353921 10.2062 0.00216735 9.46022C0.000929791 8.7769 0.00161576 8.09361 0.00381554 7.41029C0.00427722 7.16352 0.00404574 6.91675 0.00303834 6.66999C-0.00468041 4.62161 0.169993 3.05915 1.57654 1.47266C2.66689 0.419465 3.97544 0.00648137 5.46582 0.0203009ZM2.95782 3.26832C1.9892 4.94816 1.9892 4.94816 2.26718 8.37904C14.3008 8.37904 26.3345 8.37904 38.7328 8.37904C39.0108 4.94816 39.0108 4.94816 38.0422 3.26832C36.9591 2.25741 35.8427 2.1204 34.3992 2.12822C34.275 2.12779 34.1507 2.12736 34.0226 2.12692C33.6095 2.12582 33.1963 2.12668 32.7831 2.12756C32.4855 2.12718 32.188 2.12669 31.8904 2.12609C31.0845 2.12483 30.2786 2.12532 29.4727 2.12619C28.6282 2.12689 27.7837 2.12624 26.9393 2.12581C25.5213 2.12531 24.1033 2.12597 22.6854 2.12729C21.0473 2.12879 19.4093 2.1283 17.7712 2.12678C16.3634 2.12553 14.9556 2.12535 13.5478 2.12607C12.7076 2.1265 11.8674 2.12656 11.0272 2.12565C10.2372 2.12485 9.44718 2.12541 8.65718 2.127C8.3677 2.12737 8.07821 2.12726 7.78873 2.12665C7.39273 2.12589 6.99676 2.12685 6.60076 2.12822C6.43011 2.1273 6.43011 2.1273 6.256 2.12635C4.92717 2.13525 3.9428 2.34901 2.95782 3.26832ZM2.26718 10.4509C2.26718 25.5842 2.26718 40.7174 2.26718 56.3093C3.45231 56.3548 4.63745 56.4004 5.85849 56.4474C6.27288 56.9999 6.27288 56.9999 6.24698 57.5006C6.13475 57.9668 6.13475 57.9668 5.85849 58.243C5.49746 58.2871 5.49746 58.2871 5.04592 58.3002C4.88478 58.3056 4.72364 58.3109 4.55761 58.3164C4.30415 58.3228 4.30415 58.3228 4.04557 58.3294C3.87553 58.3347 3.70549 58.3401 3.53029 58.3456C3.10927 58.3586 2.68826 58.3704 2.26718 58.3812C2.25109 59.3838 2.23886 60.3865 2.2314 61.3892C2.22781 61.855 2.22296 62.3207 2.21508 62.7864C2.20665 63.3234 2.20277 63.8602 2.19973 64.3973C2.19617 64.5624 2.19261 64.7274 2.18893 64.8975C2.18855 66.0604 2.37752 67.053 3.22464 67.9036C4.18468 68.7275 5.38253 68.7824 6.60076 68.7758C6.72504 68.7762 6.84931 68.7767 6.97735 68.7771C7.39055 68.7782 7.80372 68.7773 8.21691 68.7765C8.51446 68.7768 8.81201 68.7773 9.10957 68.7779C9.91549 68.7792 10.7214 68.7787 11.5273 68.7778C12.3718 68.7771 13.2163 68.7778 14.0607 68.7782C15.4787 68.7787 16.8967 68.7781 18.3146 68.7767C19.9527 68.7752 21.5907 68.7757 23.2288 68.7772C24.6366 68.7785 26.0444 68.7787 27.4522 68.778C28.2924 68.7775 29.1326 68.7775 29.9728 68.7784C30.7628 68.7792 31.5528 68.7786 32.3428 68.777C32.6323 68.7767 32.9218 68.7768 33.2113 68.7774C33.6073 68.7781 34.0032 68.7772 34.3992 68.7758C34.513 68.7764 34.6268 68.777 34.744 68.7777C36.0359 68.769 37.1087 68.573 38.0422 67.6357C38.7679 66.6013 38.8269 65.6288 38.8003 64.3973C38.7993 64.2245 38.7983 64.0517 38.7973 63.8736C38.7941 63.419 38.7879 62.9645 38.7802 62.5098C38.7731 62.0441 38.77 61.5782 38.7665 61.1124C38.759 60.2019 38.7474 59.2916 38.7328 58.3812C38.5028 58.3809 38.5027 58.3809 38.268 58.3806C34.54 58.3755 30.8121 58.3673 27.0841 58.3558C25.2813 58.3503 23.4785 58.3458 21.6757 58.3437C20.1048 58.3419 18.5339 58.3382 16.963 58.3322C16.1309 58.3291 15.2987 58.3269 14.4665 58.327C13.6839 58.3271 12.9013 58.3247 12.1187 58.3202C11.8309 58.319 11.5431 58.3188 11.2552 58.3196C10.8634 58.3205 10.4717 58.3181 10.0798 58.3147C9.90748 58.3163 9.90748 58.3163 9.73167 58.318C8.96918 58.3065 8.96918 58.3065 8.61458 57.9936C8.41587 57.5362 8.50663 57.1989 8.62104 56.7236C8.97925 56.3654 9.22581 56.4129 9.71394 56.4081C9.88682 56.4085 9.88682 56.4085 10.0632 56.4089C10.185 56.4081 10.3067 56.4073 10.4322 56.4065C10.844 56.4041 11.2557 56.4037 11.6675 56.4033C11.9662 56.402 12.265 56.4006 12.5637 56.3991C13.3662 56.3953 14.1686 56.3932 14.971 56.3914C15.7231 56.3895 16.4752 56.3861 17.2273 56.3828C19.4289 56.3741 21.6306 56.3677 23.8323 56.3611C28.7495 56.344 33.6667 56.3269 38.7328 56.3093C38.7328 41.176 38.7328 26.0428 38.7328 10.4509C26.6992 10.4509 14.6655 10.4509 2.26718 10.4509Z"
      fill="white" />
    <path
      d="M21.8381 60.5652C22.6532 60.9604 23.1375 61.5852 23.5387 62.3862C23.8559 63.382 23.7286 64.3649 23.2625 65.2869C22.8374 65.99 22.2348 66.4017 21.4668 66.6682C20.4258 66.8184 19.452 66.7986 18.5532 66.2117C17.8547 65.5905 17.3862 64.8287 17.295 63.8948C17.2747 62.9558 17.4772 62.2641 17.9619 61.4625C19.0508 60.4022 20.3654 60.1178 21.8381 60.5652ZM19.7575 62.8956C19.5121 63.1992 19.5121 63.1992 19.464 63.5603C19.5571 64.0258 19.7 64.1842 20.0856 64.4581C20.5977 64.5435 20.8167 64.5275 21.2424 64.225C21.4878 63.9214 21.4878 63.9214 21.5359 63.5603C21.4428 63.0948 21.2999 62.9364 20.9143 62.6625C20.4022 62.5771 20.1831 62.5931 19.7575 62.8956Z"
      fill="white" />
    <path
      d="M21.1168 4.17061C21.2887 4.16904 21.2887 4.16904 21.4641 4.16743C21.7064 4.16593 21.9488 4.16554 22.1911 4.16616C22.5616 4.1663 22.9318 4.16055 23.3023 4.15443C23.5378 4.15371 23.7734 4.15334 24.0089 4.15335C24.1195 4.15108 24.2302 4.14882 24.3442 4.14648C24.8852 4.15319 25.1409 4.18488 25.5475 4.55451C25.8223 5.06129 25.7629 5.34532 25.6108 5.89289C25.4686 6.12517 25.4686 6.12517 25.1964 6.30727C24.7967 6.35185 24.4273 6.37192 24.0272 6.37202C23.9126 6.37307 23.798 6.37412 23.6799 6.37521C23.4376 6.3767 23.1953 6.37709 22.953 6.37647C22.5824 6.37634 22.2122 6.38208 21.8417 6.38821C21.6062 6.38892 21.3707 6.3893 21.1352 6.38928C21.0245 6.39155 20.9139 6.39381 20.7998 6.39615C20.2589 6.38944 20.0031 6.35775 19.5966 5.98812C19.3217 5.48134 19.3811 5.19731 19.5332 4.64974C19.8893 4.06815 20.5072 4.17077 21.1168 4.17061Z"
      fill="white" />
    <path
      d="M16.9087 4.2346C17.2627 4.51949 17.2627 4.51949 17.4613 4.92524C17.453 5.40421 17.4073 5.73857 17.1764 6.15975C16.7321 6.4034 16.288 6.40862 15.8037 6.30651C15.4498 6.02163 15.4498 6.02163 15.2512 5.61588C15.2595 5.13691 15.3051 4.80255 15.5361 4.38136C15.9804 4.13772 16.4245 4.13249 16.9087 4.2346Z"
      fill="white" />
  </symbol>

  <symbol id="clock" viewBox="0 0 60 71">
    <path
      d="M27.4093 0.0989348C27.7772 0.312835 27.7772 0.312835 27.9569 0.646521C28.0318 1.17051 28.0489 1.46686 27.7516 1.91281C27.3679 2.18141 27.007 2.31697 26.5612 2.45238C26.2641 2.55917 26.2641 2.55917 26.0404 2.97376C25.9821 3.40246 25.996 3.83348 25.9976 4.26572C25.9954 4.38334 25.9932 4.50095 25.9909 4.62213C25.9908 4.79273 25.9908 4.79273 25.9906 4.96678C25.9902 5.07027 25.9898 5.17376 25.9894 5.28038C26.0561 5.66561 26.183 5.83872 26.4511 6.12238C26.7752 6.20518 26.7752 6.20518 27.1446 6.19323C27.2858 6.19496 27.427 6.19669 27.5724 6.19846C27.7247 6.19736 27.877 6.19625 28.0339 6.19511C28.1904 6.19563 28.3468 6.19615 28.508 6.19669C28.839 6.19707 29.1699 6.19605 29.5009 6.19377C30.0084 6.19084 30.5157 6.19374 31.0232 6.19724C31.3444 6.19688 31.6656 6.19618 31.9868 6.19511C32.2153 6.19677 32.2153 6.19677 32.4483 6.19846C32.5895 6.19674 32.7307 6.19501 32.8761 6.19323C33.0626 6.19258 33.0626 6.19258 33.2528 6.19191C33.5908 6.14893 33.5908 6.14893 33.815 5.86242C34.0023 5.53656 34.0332 5.34495 34.0349 4.97159C34.0354 4.85848 34.036 4.74536 34.0365 4.62882C34.0349 4.51182 34.0333 4.39482 34.0317 4.27428C34.0341 4.09878 34.0341 4.09878 34.0365 3.91974C34.0343 3.45385 34.0124 3.06418 33.8563 2.6235C33.3627 2.28371 32.8018 2.34959 32.2178 2.34917C30.7065 2.34158 30.7065 2.34158 30.1473 1.87859C29.9356 1.45534 29.9702 1.11275 30.0104 0.646521C30.2943 0.27247 30.461 0.118782 30.9251 0.0237353C31.379 0.0159454 31.8323 0.010855 32.2863 0.0133745C32.4421 0.00896277 32.5979 0.00455106 32.7585 5.67166e-06C33.8531 -0.00125111 34.6388 0.206061 35.4862 0.920314C36.3288 1.9749 36.34 2.91837 36.3504 4.2315C36.3544 4.39676 36.3583 4.56202 36.3624 4.73229C36.3709 5.93088 36.2233 6.65128 35.452 7.59402C34.6839 8.2225 34.1668 8.44962 33.159 8.44962C33.159 9.08208 33.159 9.71454 33.159 10.3662C33.33 10.3863 33.501 10.4064 33.6772 10.4271C37.2076 10.8704 40.5771 11.8487 43.7237 13.5191C43.964 13.6465 44.2058 13.7711 44.4476 13.8955C45.9439 14.6774 47.3159 15.6029 48.6283 16.6634C49.0836 16.4545 49.3067 16.2618 49.5866 15.842C49.499 15.7178 49.4115 15.5936 49.3213 15.4656C48.8178 14.6721 48.8312 13.8892 48.9021 12.9672C49.1661 12.0871 49.6443 11.3296 50.4534 10.8688C51.3743 10.4671 52.1623 10.3408 53.1373 10.6485C54.5207 11.253 55.5722 12.4759 56.6185 13.5294C56.8767 13.789 57.1363 14.0471 57.3961 14.3052C57.563 14.4723 57.7298 14.6395 57.8966 14.8067C57.973 14.8826 58.0495 14.9585 58.1283 15.0367C59.0439 15.9632 59.637 16.8094 59.7682 18.1436C59.7417 18.9461 59.4744 19.7257 58.9533 20.3409C58.1038 21.1119 57.2484 21.3898 56.11 21.3585C55.595 21.3009 55.246 21.1499 54.7886 20.9072C54.6234 20.8267 54.6234 20.8267 54.4549 20.7446C54.3843 20.7079 54.3138 20.6712 54.241 20.6334C54.0152 20.8593 53.7893 21.0852 53.5566 21.3179C53.7496 21.8779 54.0192 22.2757 54.3865 22.7382C59.109 28.896 60.7142 36.9974 59.7169 44.5903C59.4505 46.3829 59.0361 48.1203 58.4763 49.8437C58.4313 49.9837 58.3864 50.1237 58.3401 50.268C58.2959 50.3973 58.2517 50.5265 58.2062 50.6597C58.1676 50.7734 58.1289 50.8871 58.0891 51.0043C57.9071 51.3565 57.7274 51.5057 57.3897 51.7089C56.9875 51.7773 56.9875 51.7773 56.5683 51.7089C56.1747 51.4266 56.1747 51.4266 55.8838 51.0244C55.8127 50.2706 55.9887 49.6825 56.2517 48.9881C58.5739 42.3957 57.993 34.8538 55.0747 28.5424C53.6782 25.6322 51.8713 23.0516 49.5866 20.7703C49.4666 20.6455 49.3466 20.5208 49.2229 20.3922C44.3269 15.3256 37.3141 12.7376 30.3491 12.5471C26.7639 12.5172 23.2266 13.2094 19.88 14.4731C19.7911 14.5064 19.7021 14.5397 19.6105 14.574C16.0802 15.9226 12.9047 18.1948 10.2973 20.9072C10.1329 21.0713 10.1329 21.0713 9.96519 21.2387C8.71447 22.4914 7.69241 23.8018 6.73797 25.2879C6.67863 25.38 6.61929 25.4722 6.55816 25.5671C2.68432 31.6627 1.49596 39.2932 2.9915 46.3237C3.64764 49.1467 4.73671 51.8081 6.19038 54.3099C6.27297 54.4532 6.35556 54.5965 6.44065 54.7442C6.66465 55.1117 6.90062 55.464 7.14866 55.8158C7.20446 55.8952 7.26027 55.9746 7.31777 56.0564C8.3393 57.4967 9.4628 58.8084 10.708 60.0596C10.7801 60.1322 10.8522 60.2049 10.9265 60.2798C15.7045 65.0321 22.5947 67.8593 29.3219 67.9078C29.5086 67.9073 29.6953 67.9065 29.882 67.9055C30.0282 67.905 30.0282 67.905 30.1774 67.9046C35.7591 67.8777 41.3545 66.259 45.8904 62.9344C46.0344 62.8292 46.1783 62.7241 46.3267 62.6157C47.3844 61.8289 48.3614 60.9708 49.3128 60.0596C49.3818 59.9943 49.4508 59.929 49.5219 59.8617C50.5735 58.8632 51.4637 57.8022 52.3245 56.6372C52.5091 56.397 52.6944 56.1573 52.8806 55.9185C52.9931 55.7734 52.9931 55.7734 53.1079 55.6254C53.2828 55.4051 53.2828 55.4051 53.4197 55.2682C54.3879 55.1888 54.3879 55.1888 54.8571 55.4821C55.1412 55.9438 55.1112 56.2372 55.0624 56.7741C54.8362 57.204 54.8362 57.204 54.5234 57.6297C54.4673 57.7065 54.4112 57.7834 54.3534 57.8626C54.1819 58.0953 54.0069 58.3248 53.8303 58.5537C53.7351 58.6783 53.6398 58.8029 53.5416 58.9313C51.1432 61.9518 48.2616 64.446 44.9083 66.3512C44.6702 66.4869 44.434 66.6261 44.1979 66.7654C41.5868 68.2439 38.6906 69.1825 35.76 69.7792C35.6461 69.8034 35.5322 69.8275 35.4149 69.8524C27.9859 71.3597 19.7631 69.5558 13.4858 65.4098C12.3127 64.6114 11.2153 63.7453 10.1604 62.7975C10.0201 62.674 9.87983 62.5504 9.73953 62.4269C8.19672 61.055 6.85427 59.5396 5.6428 57.8692C5.58871 57.7955 5.53462 57.7218 5.47889 57.6458C0.858295 51.2764 -0.824559 43.1366 0.372817 35.4143C1.21418 30.3752 3.18405 25.5399 6.46417 21.5917C6.52693 21.5152 6.58969 21.4388 6.65435 21.36C9.07575 18.4183 11.9211 15.9709 15.2255 14.0624C15.3763 13.9741 15.527 13.8859 15.6822 13.795C19.096 11.8526 22.9787 10.799 26.8617 10.3662C26.8617 9.73371 26.8617 9.10125 26.8617 8.44962C26.681 8.44115 26.5003 8.43268 26.3142 8.42395C25.595 8.34028 25.076 8.11073 24.5345 7.62824C23.7051 6.57243 23.677 5.64196 23.6618 4.33417C23.6541 4.08972 23.6541 4.08972 23.6463 3.84033C23.6356 2.76278 23.7648 1.94828 24.3976 1.05721C24.7243 0.748658 24.7243 0.748658 25.0393 0.569516C25.1443 0.507223 25.2493 0.44493 25.3575 0.380749C26.0349 0.0201015 26.6471 0.0201206 27.4093 0.0989348ZM29.0521 8.44962C29.0521 9.0369 29.0521 9.62419 29.0521 10.2293C29.6846 10.2293 30.317 10.2293 30.9686 10.2293C30.9686 9.64199 30.9686 9.0547 30.9686 8.44962C30.3362 8.44962 29.7037 8.44962 29.0521 8.44962ZM51.3662 12.9672C51.0683 13.4141 51.0213 13.5441 51.0924 14.0624C51.2982 14.3812 51.2982 14.3812 51.5983 14.6784C51.7672 14.8568 51.7672 14.8568 51.9396 15.0388C52.0677 15.1699 52.196 15.3007 52.3245 15.4313C52.392 15.5006 52.4595 15.57 52.5291 15.6414C52.9682 16.0917 53.4114 16.5378 53.8571 16.9818C54.09 17.214 54.3222 17.447 54.5544 17.68C54.7034 17.8289 54.8524 17.9777 55.0015 18.1265C55.1048 18.2302 55.1048 18.2302 55.2102 18.336C55.7639 18.9094 55.7639 18.9094 56.4913 19.1789C56.9581 19.1106 57.1036 18.9478 57.3897 18.58C57.537 18.3214 57.537 18.3214 57.5266 18.0324C57.1915 17.3368 56.646 16.8361 56.1068 16.2976C55.9592 16.1492 55.9592 16.1492 55.8086 15.9977C55.601 15.7893 55.3931 15.5813 55.1848 15.3737C54.866 15.0553 54.5491 14.7351 54.2322 14.4148C54.0301 14.2123 53.8279 14.01 53.6255 13.8078C53.5308 13.7119 53.4361 13.6159 53.3386 13.517C53.2495 13.4288 53.1604 13.3406 53.0686 13.2497C52.9908 13.1718 52.913 13.0939 52.8329 13.0137C52.3141 12.6082 51.9312 12.6698 51.3662 12.9672ZM51.2293 17.6217C50.9946 17.8899 50.766 18.1636 50.5448 18.4431C50.9514 18.8496 51.358 19.2562 51.7769 19.6751C52.048 19.4492 52.319 19.2234 52.5983 18.9906C52.3805 18.4244 51.9679 18.0006 51.5031 17.6217C51.4128 17.6217 51.3224 17.6217 51.2293 17.6217Z"
      fill="white" />
    <path
      d="M46.4395 22.0404C46.8175 22.38 47.1758 22.7368 47.5331 23.0981C47.625 23.1837 47.717 23.2693 47.8117 23.3575C50.6219 26.0161 52.5081 29.7168 53.615 33.3812C53.6802 33.5958 53.7497 33.8091 53.8202 34.0221C54.9822 37.7643 54.7758 42.0414 53.9672 45.823C53.9343 45.9773 53.9343 45.9773 53.9008 46.1349C52.5939 52.0254 48.563 57.4832 43.5312 60.7302C40.4751 62.6429 37.2537 63.8306 33.7065 64.4409C33.576 64.4663 33.4454 64.4917 33.3108 64.5179C26.8971 65.4203 20.4216 63.5033 15.2838 59.6597C9.97475 55.5304 6.67253 49.6166 5.83732 42.9534C5.73856 42.0805 5.73316 41.2077 5.73689 40.33C5.73705 40.2388 5.73721 40.1476 5.73737 40.0536C5.74289 38.4368 5.86876 36.8671 6.19036 35.2819C6.22318 35.1201 6.25601 34.9583 6.28982 34.7916C6.45412 34.1028 6.58692 33.6919 7.14864 33.2285C7.65808 33.1648 7.97464 33.1589 8.43204 33.3996C8.69059 33.678 8.73245 33.8149 8.79139 34.1868C8.75884 34.5288 8.75884 34.5288 8.68979 34.9108C8.653 35.1213 8.653 35.1213 8.61546 35.3359C8.58881 35.4819 8.56217 35.6278 8.53471 35.7782C8.36776 36.7096 8.21383 37.6306 8.14 38.5746C8.10691 38.8412 8.10691 38.8412 7.97001 39.115C8.05101 39.1103 8.13201 39.1055 8.21547 39.1006C8.88985 39.0775 9.3395 39.0812 9.88657 39.5257C10.0982 39.949 10.0637 40.2916 10.0235 40.7578C9.84378 41.0915 9.84378 41.0915 9.47588 41.3054C8.97058 41.3497 8.47581 41.3368 7.97001 41.3054C8.01519 41.4409 8.06037 41.5764 8.10691 41.7161C8.13314 41.955 8.1589 42.194 8.18131 42.4333C8.63466 47.1207 10.567 51.2837 13.5828 54.8581C13.6523 54.7988 13.7218 54.7395 13.7935 54.6785C14.5582 54.0598 14.5582 54.0598 15.1229 53.9512C15.6003 54.0597 15.7638 54.1859 16.0469 54.5843C16.2029 55.0732 16.235 55.2982 16.0127 55.7651C15.7975 56.0572 15.5803 56.3477 15.3624 56.6378C19.0234 60.1896 23.9595 61.7899 28.9152 62.3874C28.9104 62.295 28.9056 62.2025 28.9007 62.1072C28.897 61.9851 28.8933 61.863 28.8895 61.7372C28.8847 61.6165 28.88 61.4958 28.8751 61.3714C28.9232 60.9482 29.0294 60.7728 29.3259 60.4709C29.8698 60.3198 30.1596 60.2771 30.6777 60.5137C30.9686 60.7447 30.9686 60.7447 31.1055 61.0185C31.1151 61.2522 31.1171 61.4862 31.1141 61.7201C31.1128 61.8447 31.1116 61.9692 31.1103 62.0976C31.1079 62.2411 31.1079 62.2411 31.1055 62.3874C36.301 61.7841 40.7991 60.2141 44.7952 56.7747C44.6033 56.3658 44.6033 56.3658 44.3075 56.0303C44.0323 55.7312 43.9926 55.537 43.9738 55.1319C44.2855 54.36 44.2855 54.36 44.6583 54.1736C45.4668 54.0804 45.4668 54.0804 45.862 54.3266C46.0619 54.4947 46.2509 54.6757 46.4379 54.8581C48.2333 54.1736 49.5935 50.8643 50.352 49.2076C51.4603 46.6827 51.9817 44.0295 52.3245 41.3054C52.2221 41.3117 52.1198 41.3181 52.0143 41.3246C50.9207 41.3647 50.9207 41.3647 50.4507 41.0915C50.1998 40.6255 50.1965 40.3209 50.271 39.7995C50.5266 39.4758 50.7256 39.2984 51.0924 39.115C51.3033 39.1055 51.5145 39.1035 51.7255 39.1065C51.8374 39.1077 51.9493 39.1089 52.0646 39.1102C52.1932 39.1126 52.1932 39.1126 52.3245 39.115C52.2793 38.9795 52.2341 38.844 52.1876 38.7043C52.1507 38.3909 52.117 38.0771 52.0849 37.7632C51.5695 33.3318 49.7205 28.557 46.4379 25.4254C46.3799 25.4847 46.3218 25.544 46.262 25.6051C45.827 26.0181 45.5798 26.2298 44.9748 26.3323C44.5214 26.2468 44.5214 26.2468 44.1877 26.0414C43.9445 25.6523 43.8811 25.3424 43.9 24.8832C44.0365 24.3667 44.3937 24.1171 44.7952 23.7826C41.1943 20.273 36.1875 18.5237 31.2424 18.1699C31.2376 18.2694 31.2328 18.3689 31.2278 18.4714C31.1974 19.0125 31.1719 19.4274 30.8916 19.8982C30.4094 20.1702 30.0031 20.1905 29.4628 20.0864C29.1205 19.8982 29.1205 19.8982 28.9152 19.5388C28.8951 19.2043 28.8951 19.2043 28.9023 18.8319C28.9042 18.7081 28.906 18.5843 28.908 18.4567C28.9115 18.3147 28.9115 18.3147 28.9152 18.1699C24.1714 18.7112 19.6657 20.1261 16.0127 23.3206C15.6362 23.6457 15.6362 23.6457 15.3624 23.6457C15.4201 23.7169 15.4778 23.788 15.5373 23.8612C16.3355 24.8773 16.3355 24.8773 16.3207 25.4254C16.0987 25.9027 15.9422 26.0884 15.4993 26.3837C14.6136 26.3837 14.1808 26.0198 13.5828 25.4254C13.5478 25.503 13.5129 25.5807 13.4769 25.6607C13.2892 26.0098 13.0671 26.285 12.8127 26.589C12.2836 27.2374 11.8233 27.915 11.3732 28.62C11.0537 29.0777 10.7722 29.4529 10.2459 29.6606C9.7591 29.6722 9.47556 29.5103 9.06519 29.2585C8.82344 28.775 8.94673 28.2659 9.06519 27.7526C9.24516 27.365 9.47801 27.0339 9.73256 26.6917C9.80038 26.5974 9.86819 26.503 9.93807 26.4059C14.0656 20.743 19.7156 17.2541 26.5988 16.0417C33.7666 14.9277 41.0456 17.2935 46.4395 22.0404Z"
      fill="white" />
    <path
      d="M30.0104 24.2621C30.1008 24.2607 30.1911 24.2593 30.2842 24.2578C30.6963 24.3673 30.8447 24.5412 31.1056 24.8781C31.1607 25.2601 31.1829 25.5888 31.1803 25.9708C31.1817 26.0803 31.1831 26.1899 31.1846 26.3028C31.1886 26.6643 31.1888 27.0257 31.189 27.3872C31.191 27.6381 31.1933 27.889 31.1959 28.1399C31.2018 28.7997 31.2046 29.4596 31.2066 30.1194C31.2093 30.793 31.2151 31.4665 31.2205 32.1401C31.2309 33.4612 31.2377 34.7824 31.2425 36.1036C31.3174 36.1306 31.3924 36.1576 31.4697 36.1853C31.6173 36.2394 31.6173 36.2394 31.768 36.2945C31.8656 36.3299 31.9631 36.3654 32.0637 36.4019C33.076 36.8173 33.694 37.7038 34.1344 38.664C34.5432 39.7371 34.4956 40.8453 34.1312 41.9282C33.6 43.1111 32.7315 43.8656 31.5403 44.3319C30.399 44.6533 29.1806 44.5737 28.1088 44.0693C27.0998 43.5013 26.3125 42.5762 25.9891 41.4512C25.7559 40.2223 25.8706 39.1387 26.4511 38.0202C27.0453 37.1605 27.672 36.625 28.6414 36.2405C28.7318 36.2405 28.8221 36.2405 28.9152 36.2405C28.914 36.0994 28.9128 35.9583 28.9115 35.8129C28.9005 34.4834 28.8922 33.154 28.8869 31.8245C28.884 31.141 28.8801 30.4575 28.8739 29.774C28.868 29.1145 28.8647 28.455 28.8633 27.7955C28.8623 27.5437 28.8603 27.292 28.8573 27.0403C28.8534 26.6879 28.8528 26.3357 28.8531 25.9833C28.8511 25.879 28.8491 25.7748 28.8471 25.6673C28.8509 25.1851 28.8774 24.9272 29.1758 24.5398C29.4867 24.3131 29.6303 24.2562 30.0104 24.2621ZM28.6414 38.8416C28.2671 39.3559 28.043 39.8488 28.0767 40.4929C28.2012 41.137 28.5701 41.5635 29.0521 41.9902C29.5677 42.3246 30.063 42.3022 30.6558 42.2191C31.3263 42.0219 31.7668 41.5592 32.1323 40.9806C32.2709 40.2531 32.1625 39.7128 31.8243 39.0726C31.4217 38.5917 31.1478 38.3369 30.5125 38.2507C29.7333 38.2144 29.2275 38.2834 28.6414 38.8416Z"
      fill="white" />
  </symbol>

  <symbol id="settings" viewBox="0 0 76 70" fill="none">
    <path
      d="M17.3431 24.9265C18.0316 25.3295 18.4352 25.9644 18.7911 26.664C18.7911 26.7596 18.7911 26.8551 18.7911 26.9536C18.9145 27.0138 18.9145 27.0138 19.0405 27.0752C19.4833 27.3008 19.9093 27.5536 20.338 27.8048C21.6004 28.4158 23.5723 28.281 24.9188 28.0181C26.1379 27.5709 27.0048 26.6772 27.6789 25.5928C28.0428 25.2324 28.2698 25.2201 28.7818 25.2161C29.2787 25.3624 29.7412 25.571 30.2117 25.7862C30.3448 25.8453 30.478 25.9044 30.6151 25.9652C33.8983 27.4367 33.8983 27.4367 34.4288 27.9672C34.4622 28.2601 34.4622 28.2601 34.456 28.6006C34.4546 28.768 34.4546 28.768 34.4531 28.9389C34.4296 29.26 34.3623 29.5381 34.284 29.8495C34.1611 31.2177 34.4066 32.2452 35.2523 33.3336C35.4573 33.5746 35.6655 33.813 35.8767 34.0485C35.9732 34.1569 36.0697 34.2654 36.1692 34.3771C36.8988 35.1528 37.6227 35.5958 38.6278 35.9308C38.8674 35.936 39.1072 35.9329 39.3467 35.9246C39.4864 35.9215 39.6261 35.9184 39.7701 35.9153C40.0638 35.9075 40.3576 35.8981 40.6513 35.887C40.7912 35.8845 40.931 35.8819 41.0752 35.8793C41.2667 35.8734 41.2667 35.8734 41.462 35.8674C41.9499 35.9555 42.0913 36.118 42.3925 36.51C42.5667 36.8763 42.7186 37.2297 42.8608 37.6078C42.9017 37.7139 42.9427 37.8199 42.9849 37.9292C43.0708 38.1529 43.156 38.377 43.2404 38.6013C43.3692 38.9426 43.5014 39.2824 43.634 39.6222C43.7173 39.8405 43.8005 40.059 43.8834 40.2775C43.9227 40.3781 43.9621 40.4787 44.0027 40.5824C44.2395 41.2213 44.339 41.7552 44.2748 42.4465C43.9062 42.9303 43.501 43.2027 42.9807 43.4963C42.1692 43.9825 41.7397 44.7158 41.3597 45.5636C40.9717 47.1172 40.9096 49.2599 41.6051 50.7269C42.1862 51.6507 42.9141 52.182 43.8404 52.7269C44.1076 53.2614 44.0655 53.8931 43.9043 54.4587C43.7897 54.7491 43.6638 55.0306 43.5305 55.3128C43.4836 55.4159 43.4368 55.5189 43.3885 55.6251C43.2898 55.8412 43.1899 56.0567 43.0891 56.2719C42.9354 56.6001 42.7856 56.93 42.6362 57.2602C42.5394 57.4709 42.4423 57.6815 42.345 57.892C42.3004 57.9899 42.2559 58.0877 42.2101 58.1886C41.9544 58.7294 41.7082 59.1601 41.2341 59.5322C40.7815 59.5726 40.3995 59.5814 39.9593 59.4604C38.7596 59.185 37.5476 59.2692 36.4808 59.8863C36.0721 60.1789 35.7303 60.5018 35.392 60.8727C35.1532 61.1245 34.9036 61.3223 34.6279 61.5322C33.8405 62.1919 33.4259 63.1647 33.2705 64.1656C33.244 64.8229 33.244 64.8229 33.3428 65.4688C33.4575 65.9275 33.4648 66.3011 33.4152 66.7719C32.8792 67.4354 32.3244 67.7002 31.5476 67.9834C31.4386 68.0245 31.3295 68.0656 31.2172 68.108C30.9875 68.1938 30.7575 68.2787 30.5271 68.3627C30.1764 68.491 29.8276 68.6238 29.4787 68.7572C29.2544 68.8404 29.0301 68.9234 28.8056 69.006C28.7022 69.0457 28.5989 69.0853 28.4924 69.1262C27.8157 69.3678 27.3262 69.4155 26.6099 69.2334C26.3147 68.928 26.3147 68.928 26.0851 68.5456C25.3485 67.394 24.5435 66.5738 23.1756 66.2518C21.4702 65.9468 19.5392 66.0048 18.062 66.9631C17.4917 67.4063 17.1365 67.9135 16.7985 68.5479C16.5668 68.8723 16.4229 68.9712 16.04 69.0886C15.2399 69.0248 14.6144 68.8022 13.8975 68.4698C13.7939 68.4229 13.6903 68.3759 13.5836 68.3275C13.3662 68.2286 13.1491 68.129 12.9324 68.0288C12.6008 67.8758 12.2682 67.7253 11.9354 67.5751C11.7236 67.4783 11.5119 67.3814 11.3003 67.2843C11.1516 67.2171 11.1516 67.2171 11 67.1485C10.1157 66.737 10.1157 66.737 9.81385 66.3375C9.76634 66.0304 9.76634 66.0304 9.77765 65.695C9.77989 65.5847 9.78213 65.4744 9.78444 65.3607C9.81385 65.0344 9.81385 65.0344 9.88625 64.7459C10.139 63.7309 10.0086 62.6255 9.52426 61.7041C9.12458 61.1401 8.68418 60.6241 8.22112 60.1114C8.13209 60.0104 8.04306 59.9094 7.95133 59.8054C7.22674 59.0275 6.28615 58.4047 5.19629 58.3546C4.16919 58.3465 4.16919 58.3465 3.15333 58.4734C2.71895 58.5187 2.71895 58.5187 2.32982 58.392C1.39861 57.5362 1.06812 55.8919 0.646591 54.7359C0.595689 54.6013 0.595689 54.6013 0.543758 54.4639C0.44367 54.1991 0.34685 53.933 0.250105 53.6669C0.163506 53.4326 0.163506 53.4326 0.0751574 53.1934C-0.0499398 52.6494 -0.00600481 52.2559 0.112664 51.7133C0.404469 51.3095 0.824925 51.0974 1.24387 50.8355C2.14817 50.2155 2.66384 49.4172 3.00854 48.3831C3.05401 47.7775 3.05548 47.1712 3.06284 46.5641C3.06825 46.3986 3.07366 46.2332 3.07924 46.0627C3.09288 44.7371 2.80742 43.7923 1.94974 42.7723C1.52747 42.4188 1.09279 42.0901 0.644329 41.7706C0.402252 41.5778 0.402252 41.5778 0.257458 41.2882C0.189133 40.3736 0.343965 39.7736 0.738784 38.9551C0.788489 38.8485 0.838193 38.7419 0.889404 38.632C0.994341 38.4085 1.10039 38.1855 1.20749 37.963C1.37064 37.6229 1.52901 37.2809 1.68701 36.9384C1.78996 36.7206 1.89317 36.503 1.99668 36.2854C2.04362 36.1836 2.09056 36.0818 2.13892 35.9769C2.43093 35.3794 2.67507 35.0283 3.29813 34.7725C3.69981 34.7997 4.06306 34.8456 4.45648 34.9173C5.80155 35.1462 6.83252 34.9813 8.00393 34.2566C9.25669 33.3593 10.5414 32.1902 10.9162 30.6407C11.0174 29.9957 11.007 29.3663 10.9139 28.7222C10.8943 28.5835 10.8747 28.4449 10.8546 28.302C10.8327 28.173 10.8109 28.044 10.7884 27.9112C10.8468 27.3443 11.1248 27.1749 11.5514 26.8088C11.9114 26.6123 12.2842 26.4685 12.6684 26.3263C12.7746 26.2856 12.8808 26.2448 12.9902 26.2028C13.2137 26.1176 13.4375 26.0333 13.6616 25.95C14.0032 25.8226 14.3433 25.6917 14.6834 25.5602C14.9015 25.4775 15.1198 25.395 15.3381 25.3128C15.439 25.2739 15.5399 25.235 15.6439 25.1949C16.23 24.9794 16.719 24.8656 17.3431 24.9265ZM15.5547 27.8993C15.4315 27.945 15.3083 27.9907 15.1814 28.0379C14.9882 28.1104 14.9882 28.1104 14.7911 28.1843C14.5963 28.2569 14.5963 28.2569 14.3975 28.3308C14.0761 28.4505 13.7548 28.5706 13.4337 28.6911C13.4382 28.794 13.4427 28.8969 13.4474 29.0029C13.52 30.9816 13.0183 32.7908 11.6792 34.273C10.731 35.276 9.75028 36.1696 8.51071 36.7996C8.3933 36.8601 8.2759 36.9205 8.15494 36.9828C6.89252 37.5336 5.52192 37.4955 4.16689 37.5235C3.97247 37.9241 3.77992 38.3255 3.58772 38.7271C3.53247 38.8409 3.47722 38.9547 3.4203 39.0719C3.36804 39.1815 3.31578 39.2912 3.26193 39.4042C3.2134 39.505 3.16487 39.6059 3.11487 39.7098C2.98245 40.0034 2.98245 40.0034 3.00854 40.4194C3.20315 40.6122 3.20315 40.6122 3.46102 40.7905C4.58832 41.7196 5.26833 43.1835 5.47004 44.6184C5.60302 46.338 5.67329 48.2032 5.03565 49.831C4.98974 49.9542 4.94382 50.0774 4.89652 50.2043C4.44253 51.254 3.69529 51.9616 2.86375 52.7269C2.7204 52.8702 2.7204 52.8702 2.57416 53.0165C2.73945 53.4481 2.90559 53.8794 3.07189 54.3106C3.11902 54.4337 3.16615 54.5568 3.2147 54.6836C3.25996 54.8007 3.30523 54.9178 3.35186 55.0385C3.39356 55.1469 3.43527 55.2554 3.47824 55.3671C3.56837 55.6214 3.56837 55.6214 3.73251 55.7676C4.04287 55.7909 4.35371 55.8078 4.66462 55.8219C7.17106 55.9896 8.82616 57.1209 10.5016 58.944C11.7847 60.4661 12.448 62.0788 12.4292 64.0751C12.4279 64.2554 12.4266 64.4357 12.4252 64.6215C12.4236 64.7577 12.4219 64.894 12.4201 65.0344C12.79 65.233 13.161 65.4285 13.5332 65.6226C13.6899 65.7073 13.6899 65.7073 13.8497 65.7937C14.4618 66.1102 14.4618 66.1102 15.1362 66.1899C15.5291 66.0181 15.7638 65.8077 16.0671 65.505C17.6124 64.0703 19.2339 63.8238 21.2707 63.8217C21.4506 63.8182 21.6305 63.8146 21.8159 63.811C23.6876 63.8051 25.3292 64.2094 26.7547 65.4688C27.023 65.7788 27.2755 66.089 27.5126 66.4235C27.7663 66.6714 27.7663 66.6714 28.1704 66.609C28.6694 66.4735 29.1423 66.3095 29.6235 66.1203C29.7886 66.0561 29.9538 65.9919 30.124 65.9258C30.5002 65.7956 30.5002 65.7956 30.6642 65.6135C30.6924 65.33 30.7198 65.0463 30.7429 64.7623C30.9831 61.9285 32.2583 60.2243 34.3561 58.411C35.7236 57.2674 37.2836 56.8947 39.0441 56.9169C39.1438 56.9175 39.2435 56.9182 39.3461 56.9188C39.5894 56.9205 39.8326 56.9231 40.0758 56.9259C40.274 56.5287 40.4696 56.1305 40.664 55.7314C40.7487 55.5625 40.7487 55.5625 40.8351 55.3903C40.8878 55.2811 40.9405 55.1719 40.9949 55.0594C41.0442 54.9593 41.0934 54.8593 41.1442 54.7561C41.2528 54.4037 41.2196 54.2268 41.0893 53.8852C40.8504 53.6265 40.8504 53.6265 40.5554 53.3785C39.3025 52.1705 38.7859 50.5652 38.7291 48.8599C38.7262 48.5652 38.7257 48.2705 38.7274 47.9758C38.7282 47.8218 38.729 47.6678 38.7298 47.5091C38.7613 45.4793 39.2131 43.7091 40.6821 42.2293C40.8649 42.0591 41.0488 41.8901 41.2341 41.7226C41.3794 41.5783 41.5243 41.4335 41.6685 41.2882C41.5032 40.8566 41.3371 40.4253 41.1708 39.9941C41.1001 39.8094 41.1001 39.8094 41.028 39.6211C40.9827 39.504 40.9374 39.3868 40.8908 39.2662C40.8491 39.1577 40.8074 39.0493 40.7644 38.9376C40.6743 38.6833 40.6743 38.6833 40.5101 38.5371C40.1816 38.5176 39.8527 38.5035 39.5237 38.4919C36.9418 38.3498 35.2564 37.0879 33.56 35.2068C32.3583 33.7581 31.7901 32.1878 31.8135 30.311C31.8141 30.2107 31.8148 30.1104 31.8154 30.007C31.8171 29.7614 31.8197 29.5159 31.8225 29.2703C31.5035 29.1029 31.1837 28.9373 30.8633 28.7726C30.7291 28.7019 30.7291 28.7019 30.5923 28.6298C30.0368 28.3461 29.5467 28.1797 28.9266 28.1119C28.858 28.2135 28.7893 28.315 28.7185 28.4196C28.2257 28.9725 27.679 29.3295 27.0443 29.7047C26.9476 29.762 26.8509 29.8193 26.7513 29.8783C24.8506 30.8578 22.094 30.7667 20.0467 30.3246C18.6779 29.8709 17.4212 29.1222 16.6367 27.8953C16.5563 27.7875 16.5563 27.7875 16.4744 27.6776C16.1225 27.6776 15.8847 27.7761 15.5547 27.8993Z"
      fill="white" />
    <path
      d="M43.9205 0.0103625C44.39 0.300999 44.6315 0.569757 44.934 1.03297C45.3522 1.64712 45.8123 1.89307 46.5268 2.03748C47.5814 2.12938 48.5669 2.15134 49.4226 1.4583C49.6178 1.20505 49.7811 0.957267 49.93 0.674378C50.2968 0.285566 50.6396 0.235601 51.1602 0.155156C51.589 0.24599 51.9674 0.414324 52.3638 0.598588C52.4713 0.646159 52.5788 0.693731 52.6896 0.742745C52.9034 0.838173 53.1166 0.935048 53.3291 1.03346C53.5821 1.15044 53.8376 1.26216 54.0934 1.3729C55.0085 1.7878 55.0085 1.7878 55.2562 2.21338C55.423 2.86671 55.2952 3.47914 55.2138 4.14095C55.2147 4.88635 55.4792 5.31063 55.9508 5.87225C56.0602 5.98051 56.1696 6.08876 56.2822 6.2003C56.3909 6.31005 56.4995 6.4198 56.6114 6.53287C57.4665 7.2431 58.2775 7.11161 59.3416 7.05888C59.9516 7.11477 60.0443 7.22491 60.427 7.68444C60.7071 8.23811 60.909 8.8221 61.1238 9.40386C61.1845 9.55971 61.2453 9.71557 61.3079 9.87614C61.3645 10.0275 61.4212 10.1789 61.4795 10.3348C61.5312 10.4722 61.5829 10.6095 61.6361 10.7511C61.7463 11.2298 61.707 11.5548 61.5853 12.0283C61.279 12.414 60.988 12.6182 60.5627 12.8699C60.0402 13.259 59.8271 13.5736 59.703 14.2002C59.5618 15.6199 59.5618 15.6199 59.9292 16.9693C60.3457 17.4605 60.7594 17.7554 61.2957 18.1096C61.5954 18.7089 61.5162 19.3273 61.3135 19.9436C61.138 20.3671 60.949 20.7812 60.7528 21.1955C60.6885 21.3386 60.6243 21.4816 60.5582 21.629C59.9986 22.8379 59.9986 22.8379 59.4134 23.1774C58.8933 23.1977 58.3934 23.1805 57.875 23.1477C57.0987 23.1196 56.7071 23.2521 56.0832 23.7566C55.987 23.8279 55.8909 23.8992 55.7919 23.9726C55.7118 24.0387 55.6317 24.1048 55.5492 24.1728C55.468 24.2382 55.3868 24.3035 55.3032 24.3708C54.8327 24.8834 54.6403 25.3326 54.6182 26.0286C54.6416 26.4027 54.6658 26.7767 54.6906 27.1507C54.6352 27.666 54.6352 27.666 54.362 28.0568C53.7688 28.4952 53.1591 28.7452 52.4724 29.0053C52.3448 29.0561 52.2172 29.1069 52.0858 29.1592C50.462 29.7917 50.462 29.7917 49.7122 29.5574C49.223 29.221 48.969 28.8769 48.6534 28.3809C48.192 27.8511 47.6988 27.6833 47.0109 27.6083C46.8273 27.6094 46.6436 27.6105 46.4544 27.6117C46.2707 27.6106 46.087 27.6094 45.8978 27.6083C45.0276 27.7031 44.4997 28.0225 43.9567 28.6976C43.4031 29.3784 43.4031 29.3784 42.7729 29.455C41.9706 29.4423 41.2766 29.0582 40.5631 28.7248C40.4206 28.6618 40.278 28.5988 40.1312 28.5339C38.7407 27.8958 38.7407 27.8958 38.4183 27.2316C38.4141 26.7289 38.4631 26.2744 38.5343 25.7794C38.597 25.2187 38.5779 24.942 38.3041 24.4409C38.1984 24.3106 38.0928 24.1804 37.9839 24.0461C37.9126 23.95 37.8413 23.8539 37.7679 23.7549C37.7018 23.6748 37.6357 23.5947 37.5676 23.5122C37.5023 23.431 37.437 23.3498 37.3697 23.2662C36.8571 22.7957 36.4079 22.6033 35.7119 22.5812C35.3378 22.6046 34.9638 22.6288 34.5898 22.6536C34.0745 22.5982 34.0745 22.5982 33.6893 22.338C33.2092 21.6808 32.9345 20.9841 32.6446 20.2272C32.5545 20.0066 32.5545 20.0066 32.4625 19.7815C32.1455 18.9678 31.9305 18.3805 32.1922 17.5304C32.5089 17.2227 32.5089 17.2227 32.9161 16.9512C33.4875 16.5297 33.8664 16.1985 34.0745 15.5033C34.2214 14.0021 34.2214 14.0021 33.8482 12.5803C33.4307 12.0985 33.0131 11.7999 32.4818 11.4491C32.2621 11.0097 32.2645 10.6213 32.337 10.1459C32.531 9.58452 32.7794 9.05331 33.0338 8.517C33.0992 8.37328 33.1646 8.22956 33.232 8.08149C33.8061 6.84457 33.8061 6.84457 34.2193 6.52609C34.6003 6.50956 34.9537 6.51371 35.3324 6.53513C36.6956 6.56915 37.3472 6.29978 38.3278 5.37678C38.8841 4.81943 39.1373 4.37444 39.1502 3.57591C39.1328 3.22595 39.1147 2.87603 39.0959 2.52616C39.1553 1.9001 39.2463 1.72895 39.7214 1.31351C40.2553 1.03887 40.8065 0.826715 41.3685 0.616687C41.5919 0.528355 41.5919 0.528355 41.8198 0.43824C42.5496 0.158455 43.128 -0.0496292 43.9205 0.0103625ZM41.7486 3.19583C41.6217 3.6641 41.5737 4.11914 41.5229 4.60135C41.3409 5.95918 40.4155 6.93865 39.3957 7.78398C38.2219 8.6574 37.1124 8.91347 35.6672 8.98758C35.4761 9.41762 35.285 9.84766 35.088 10.2907C35.2224 10.4371 35.3568 10.5834 35.4953 10.7342C36.6355 12.0653 36.6454 13.6801 36.536 15.3585C36.3555 16.703 35.8722 17.5487 34.9766 18.5372C34.7618 18.8216 34.7618 18.8216 34.8511 19.1435C34.9191 19.2947 34.9191 19.2947 34.9885 19.4489C35.0327 19.5512 35.077 19.6535 35.1225 19.7589C35.1589 19.8358 35.1953 19.9127 35.2328 19.9919C35.3624 20.0027 35.4919 20.0136 35.6254 20.0247C37.5264 20.2314 38.8066 20.9588 40.011 22.4534C40.7974 23.6406 41.0488 24.8129 41.1694 26.218C41.7268 26.5186 41.7268 26.5186 42.3277 26.6524C42.6532 26.4841 42.8952 26.2683 43.1739 26.0308C44.4791 24.9975 46.2486 25.0389 47.8299 25.2045C49.0453 25.454 50.0006 26.072 50.8706 26.942C51.2528 26.7987 51.6351 26.6553 52.0289 26.5076C52.0477 26.329 52.0477 26.329 52.0668 26.1468C52.3097 24.217 52.9648 22.967 54.4904 21.7294C55.5635 21.0111 56.5467 20.7574 57.8303 20.6887C58.2964 20.6101 58.2964 20.6101 58.5311 20.1463C58.7085 19.734 58.7085 19.734 58.6804 19.4037C58.5479 19.1014 58.5479 19.1014 58.2822 18.8064C57.1879 17.3995 57.1336 15.7898 57.276 14.074C57.43 12.9777 57.8365 11.9062 58.7177 11.1912C58.804 11.1329 58.8902 11.0747 58.979 11.0147C58.8357 10.5847 58.6923 10.1546 58.5446 9.71155C58.436 9.69905 58.3274 9.68654 58.2155 9.67365C56.2654 9.40595 55.016 8.61921 53.7665 7.10526C52.9785 5.94809 52.7574 4.87305 52.7529 3.48541C52.1187 3.15775 52.1187 3.15775 51.4317 3.06008C51.1384 3.19314 51.1384 3.19314 50.8525 3.45827C49.7744 4.27855 48.6477 4.44774 47.3231 4.42657C47.1129 4.42993 47.1129 4.42993 46.8984 4.43336C45.6397 4.4266 44.4762 4.14192 43.5585 3.23203C42.9793 2.66705 42.3912 2.59545 41.7486 3.19583Z"
      fill="white" />
    <path
      d="M58.5979 39.4783C58.8982 39.7622 58.8982 39.7622 59.1318 40.1118C59.5569 40.7347 59.8979 41.1182 60.625 41.3606C60.9775 41.3819 61.3307 41.3926 61.6838 41.3968C61.9652 41.4024 61.9652 41.4024 62.2522 41.4081C62.9963 41.3432 63.4584 41.1543 63.9632 40.5987C64.1392 40.3642 64.3141 40.1289 64.4881 39.8929C64.8782 39.5796 65.1456 39.5296 65.6427 39.5578C66.3471 39.6932 66.9771 40.0122 67.6204 40.3199C67.835 40.418 67.835 40.418 68.0539 40.5181C69.2418 41.0721 69.2418 41.0721 69.6022 41.5054C69.7575 42.0099 69.7287 42.3092 69.6022 42.8085C69.5278 43.4793 69.5264 43.9685 69.8466 44.5732C69.9571 44.7076 70.0676 44.842 70.1814 44.9805C70.2889 45.1298 70.3964 45.2791 70.5072 45.4329C71.1164 46.0699 71.6337 46.4102 72.5315 46.4482C72.856 46.4412 73.1804 46.4277 73.5043 46.4063C74.0316 46.4327 74.2468 46.5525 74.67 46.8628C74.8718 47.1994 74.8718 47.1994 75.0258 47.593C75.0822 47.7366 75.1387 47.8802 75.1969 48.0282C75.281 48.2532 75.281 48.2532 75.3668 48.4827C75.4257 48.6298 75.4846 48.777 75.5453 48.9286C75.868 49.7689 76.0768 50.4504 75.9732 51.3514C75.6842 51.7169 75.3841 51.9708 75.0179 52.2546C74.5168 52.6523 74.2736 52.9119 74.0908 53.5233C73.9439 55.0245 73.9439 55.0245 74.3171 56.4463C74.7347 56.9281 75.1523 57.2267 75.6836 57.5775C75.903 58.0163 75.899 58.4058 75.8284 58.8807C75.6411 59.4393 75.3988 59.9671 75.1496 60.5005C75.0866 60.6431 75.0237 60.7856 74.9587 60.9324C74.3259 62.3116 74.3259 62.3116 73.6565 62.6453C73.183 62.6498 73.183 62.6498 72.67 62.5729C71.7523 62.482 71.1997 62.5017 70.471 63.0797C69.8254 63.633 69.2656 64.1262 69.0231 64.962C69.0094 65.4401 69.0324 65.9097 69.0553 66.3873C69.0166 66.9362 68.9509 67.1522 68.5887 67.5683C68.1773 67.8134 67.7464 67.994 67.3036 68.1746C67.1873 68.2242 67.0711 68.2737 66.9513 68.3248C66.6293 68.4614 66.3061 68.5944 65.9824 68.7266C65.8461 68.7845 65.7099 68.8424 65.5695 68.902C65.0986 69.0749 64.7414 69.0783 64.2449 69.0162C63.8866 68.7262 63.6226 68.4195 63.3359 68.0609C62.8658 67.4732 62.8658 67.4732 62.2177 67.1339C61.7858 67.0886 61.3576 67.0869 60.9236 67.0887C60.7502 67.0852 60.7502 67.0852 60.5733 67.0816C59.8785 67.081 59.4679 67.1509 58.8875 67.5683C58.7919 67.5683 58.6964 67.5683 58.5979 67.5683C58.5591 67.6788 58.5202 67.7893 58.4802 67.9031C58.2226 68.4862 58.2226 68.4862 57.8739 68.7266C56.8064 69.0706 55.9769 68.5601 55.0052 68.1113C54.8395 68.0383 54.6739 67.9653 54.5032 67.8901C53.2809 67.3393 53.2809 67.3393 52.9509 66.8443C52.9272 66.5695 52.9272 66.5695 52.943 66.2623C52.9483 66.0939 52.9483 66.0939 52.9538 65.9221C52.9639 65.6879 52.9752 65.4537 52.9877 65.2196C53.0151 64.2456 52.7246 63.7835 52.0924 63.0412C51.9994 62.9464 51.9064 62.8516 51.8107 62.7539C51.7185 62.6576 51.6263 62.5613 51.5313 62.462C50.6895 61.797 49.8028 61.9131 48.787 61.9677C48.3175 61.9213 48.3175 61.9213 48.0042 61.7228C47.6012 61.1458 47.3693 60.5235 47.123 59.8671C47.044 59.6698 47.044 59.6698 46.9635 59.4686C46.6584 58.6674 46.3713 57.858 46.58 56.9983C46.9182 56.6115 46.9182 56.6115 47.3583 56.3106C48.1151 55.7888 48.1151 55.7888 48.4623 54.9712C48.5071 54.563 48.5159 54.16 48.5166 53.7495C48.5202 53.6427 48.5237 53.5358 48.5274 53.4257C48.5314 52.6658 48.3817 52.2437 47.8831 51.641C47.62 51.377 47.62 51.377 47.3492 51.1704C46.883 50.799 46.883 50.799 46.7248 50.4826C46.6581 49.5082 47.0246 48.7951 47.4126 47.9216C47.4768 47.7703 47.541 47.619 47.6071 47.4632C47.6706 47.3182 47.7341 47.1733 47.7994 47.024C47.8571 46.8923 47.9147 46.7605 47.9741 46.6248C48.1938 46.2474 48.3748 46.0665 48.7519 45.8492C49.2413 45.8243 49.7089 45.839 50.197 45.8662C51.2674 45.9025 51.9524 45.4835 52.7173 44.7831C53.2959 44.196 53.522 43.8324 53.5442 43.0105C53.5391 42.6284 53.5187 42.2526 53.4939 41.8708C53.5301 41.3606 53.5301 41.3606 53.7128 40.976C54.3365 40.4422 55.0544 40.2086 55.8197 39.9308C55.9743 39.8707 56.1289 39.8106 56.2883 39.7486C57.7813 39.1946 57.7813 39.1946 58.5979 39.4783ZM56.1364 42.519C56.0309 42.9007 55.9712 43.2251 55.9283 43.614C55.7736 44.6401 55.5343 45.3475 54.8333 46.1388C54.7358 46.2517 54.6384 46.3646 54.538 46.481C53.1801 47.9468 51.8327 48.2838 49.9103 48.4555C49.69 48.8841 49.5298 49.2775 49.4759 49.7587C49.6441 50.1066 49.852 50.3515 50.1077 50.6404C51.1001 51.7986 50.9793 53.3968 50.9238 54.8264C50.8141 56.0371 50.2398 57.0916 49.3944 57.9576C49.1464 58.2796 49.1464 58.2796 49.2479 58.6018C49.357 58.8981 49.4782 59.1783 49.6207 59.4598C49.7205 59.4636 49.8204 59.4673 49.9233 59.4712C51.8394 59.5868 52.9346 60.3878 54.2179 61.7584C54.9745 62.6599 55.2602 63.4795 55.3762 64.6453C55.4422 65.2986 55.4422 65.2986 55.8321 65.79C56.1254 65.9341 56.3989 66.0415 56.7156 66.1204C56.8529 65.989 56.9903 65.8576 57.1319 65.7222C58.2389 64.7832 59.4248 64.5774 60.8422 64.6C60.9824 64.5978 61.1225 64.5955 61.267 64.5932C62.394 64.5993 63.4233 64.8042 64.3042 65.5451C64.3832 65.6364 64.4621 65.7277 64.5435 65.8217C64.8062 66.0953 64.8062 66.0953 65.1136 66.2652C65.601 66.2224 65.9878 66.0601 66.4168 65.8308C66.4309 65.7083 66.4451 65.5859 66.4597 65.4597C66.7196 63.4881 67.4516 62.248 69.0231 60.9983C69.9216 60.3709 70.6511 60.1774 71.747 60.1386C72.2238 60.1218 72.2238 60.1218 72.6429 60.039C73.0203 59.6591 73.0203 59.6591 73.0773 59.1703C73.0071 58.6837 72.8107 58.3987 72.5162 58.0119C71.4815 56.4736 71.505 54.7184 71.7741 52.9441C71.9768 52.0763 72.2953 51.5336 72.9234 50.908C73.197 50.6452 73.197 50.6452 73.3669 50.3378C73.3242 49.8504 73.1618 49.4636 72.9325 49.0347C72.8029 49.0239 72.6734 49.013 72.54 49.0019C70.639 48.7952 69.3587 48.0678 68.1543 46.5732C67.3679 45.386 67.1165 44.2137 66.9959 42.8085C66.5678 42.593 66.1711 42.4304 65.6928 42.3742C65.3932 42.5428 65.1966 42.7527 64.9541 42.9958C63.8719 43.9688 62.3516 43.9163 60.983 43.8674C59.687 43.792 58.8627 43.4605 57.8892 42.5947C57.3025 42.1703 56.7479 42.1067 56.1364 42.519Z"
      fill="white" />
    <path
      d="M28.0601 38.9805C30.1927 40.6424 31.6232 42.9304 31.9673 45.6308C32.2078 48.3132 31.5647 51.0958 29.8463 53.2218C28.0589 55.2933 25.7518 56.6825 22.9901 56.9248C20.2134 57.098 17.6225 56.2323 15.5089 54.422C13.5676 52.5688 12.4511 50.2196 12.379 47.5402C12.3477 44.8022 13.1701 42.3262 15.0264 40.2735C15.1031 40.1852 15.1799 40.0969 15.2589 40.0059C18.5488 36.4504 24.229 36.3503 28.0601 38.9805ZM16.4947 42.3345C15.1707 44.0451 14.5752 45.9668 14.8273 48.1285C15.1689 50.0437 16.0684 51.6938 17.5977 52.9344C19.2436 54.0786 21.1096 54.6299 23.1111 54.401C24.446 54.1604 25.5362 53.6946 26.6099 52.8705C26.6973 52.8086 26.7846 52.7466 26.8746 52.6828C28.2267 51.6474 29.0697 50.0371 29.361 48.3819C29.6188 45.9989 29.0195 44.0609 27.5488 42.162C26.2876 40.7511 24.3793 39.9754 22.5348 39.7944C20.1828 39.7006 18.1021 40.6346 16.4947 42.3345Z"
      fill="white" />
    <path
      d="M65.6937 49.0547C67.2062 50.4752 67.9926 52.1279 68.0636 54.2033C68.0298 56.0649 67.3742 57.6959 66.1123 59.0681C64.5408 60.5535 62.7662 61.0051 60.6622 60.9538C59.0545 60.8677 57.4986 60.1232 56.3789 58.9696C55.1321 57.4694 54.4324 55.7599 54.5033 53.782C54.7019 51.7937 55.5239 50.1666 57.0604 48.8776C59.6569 46.9865 63.2024 46.9329 65.6937 49.0547ZM57.729 51.6423C56.988 52.7937 56.8609 53.9197 57.005 55.2621C57.4118 56.519 58.0552 57.3887 59.1905 58.0432C60.4002 58.6459 61.554 58.7236 62.8431 58.3237C63.8173 57.9076 64.6303 57.2235 65.1134 56.2757C65.6442 54.9073 65.7001 53.8319 65.1604 52.4647C64.5559 51.2413 63.5479 50.476 62.29 50.0043C60.4753 49.6479 58.9423 50.2473 57.729 51.6423Z"
      fill="white" />
    <path
      d="M50.545 9.09569C52.083 10.2173 53.1252 11.6487 53.5404 13.53C53.8021 15.2961 53.499 17.1334 52.4986 18.6362C51.3291 20.1681 49.8297 21.1747 47.9132 21.4987C46.0081 21.7386 44.3713 21.3019 42.7623 20.281C41.2961 19.1004 40.3305 17.5457 40.1248 15.6491C39.9856 13.5447 40.4921 11.8137 41.8573 10.1907C44.1096 7.7833 47.755 7.35908 50.545 9.09569ZM43.6311 11.883C42.8251 12.9004 42.4282 13.9976 42.4908 15.3003C42.6755 16.543 43.3704 17.5808 44.3482 18.3574C45.4186 19.0294 46.5047 19.2852 47.743 19.0593C48.8244 18.7931 49.7186 18.2659 50.3787 17.3546C51.0287 16.2408 51.3699 15.0951 51.071 13.8179C50.6566 12.5031 49.9276 11.5333 48.7079 10.8694C46.9105 10.0815 44.9979 10.4458 43.6311 11.883Z"
      fill="white" />
  </symbol>

  <symbol id="vk" viewBox="0 0 30 17">
    <path
      d="M13.5041 0.89651C13.5514 0.896537 13.5988 0.896512 13.6462 0.896496C13.7256 0.896477 13.805 0.896501 13.8844 0.896552C13.9753 0.896609 14.0662 0.89659 14.1572 0.896532C14.2362 0.896484 14.3153 0.896478 14.3943 0.896506C14.4411 0.896522 14.4879 0.896525 14.5347 0.896489C14.8268 0.896299 15.1177 0.901419 15.409 0.925418C15.442 0.92812 15.475 0.930677 15.5079 0.933224C16.0151 0.973466 16.6318 1.03907 17.0326 1.38077C17.0432 1.38976 17.0432 1.38976 17.054 1.39894C17.3032 1.62931 17.3841 2.01285 17.4105 2.33598C17.4115 2.34695 17.4124 2.35793 17.4134 2.36923C17.428 2.54424 17.4334 2.7187 17.4333 2.89427C17.4333 2.90464 17.4333 2.91501 17.4333 2.92569C17.4331 3.14417 17.4251 3.36206 17.4153 3.58029C17.4102 3.6961 17.4055 3.81192 17.4009 3.92775C17.4002 3.94584 17.4002 3.94584 17.3994 3.96429C17.369 4.72608 17.3515 5.48886 17.3475 6.25126C17.3475 6.26205 17.3474 6.27283 17.3474 6.28394C17.3465 6.45664 17.3459 6.62934 17.3456 6.80205C17.3456 6.8386 17.3454 6.87516 17.3453 6.91172C17.3452 6.96957 17.3451 7.02743 17.3451 7.08529C17.3451 7.10653 17.3451 7.12777 17.345 7.14901C17.3432 7.64465 17.4045 8.2155 17.7608 8.59007C17.8657 8.69201 17.9621 8.74405 18.107 8.74429C18.1987 8.74206 18.2733 8.7153 18.3552 8.67601C18.3667 8.6707 18.3782 8.66538 18.3901 8.6599C18.4884 8.61072 18.5739 8.54477 18.6596 8.47658C18.6654 8.47203 18.6712 8.46748 18.6772 8.4628C18.772 8.3877 18.8569 8.30214 18.9424 8.21678C18.951 8.20822 18.951 8.20822 18.9597 8.19949C19.0229 8.13629 19.0847 8.07249 19.1425 8.00422C19.1531 7.992 19.1636 7.97978 19.1742 7.96757C19.2351 7.89693 19.2948 7.82565 19.3524 7.7523C19.3606 7.74195 19.3688 7.7316 19.3773 7.72093C19.4077 7.68256 19.4378 7.64399 19.4679 7.60535C19.4775 7.59301 19.4775 7.59301 19.4873 7.58043C19.5694 7.47448 19.6492 7.36757 19.7241 7.25635C19.7589 7.2047 19.7948 7.1541 19.832 7.10413C19.8838 7.03434 19.9322 6.96267 19.9799 6.89002C19.9966 6.86466 20.0135 6.83944 20.0304 6.81421C20.4955 6.11996 20.9262 5.40032 21.3084 4.65721C21.3282 4.61888 21.3481 4.58067 21.3683 4.54255C21.5105 4.27363 21.6404 3.99827 21.7667 3.72155C21.7701 3.71405 21.7735 3.70655 21.777 3.69882C21.9639 3.28939 22.1398 2.87586 22.309 2.45886C22.313 2.44903 22.317 2.4392 22.3211 2.42907C22.3386 2.38585 22.3561 2.34261 22.3731 2.29922C22.3759 2.29208 22.3788 2.28493 22.3817 2.27758C22.3889 2.25918 22.3961 2.24077 22.4032 2.22235C22.4949 2.00735 22.655 1.80569 22.8688 1.70617C22.9799 1.66309 23.0859 1.65226 23.2039 1.6517C23.2141 1.65161 23.2243 1.65152 23.2348 1.65143C23.2691 1.65115 23.3034 1.65094 23.3377 1.65073C23.3629 1.65055 23.3881 1.65035 23.4134 1.65016C23.4761 1.64969 23.5389 1.64927 23.6016 1.64887C23.654 1.64854 23.7063 1.64818 23.7586 1.6478C24.1832 1.64479 24.6078 1.64263 25.0324 1.64073C25.0693 1.64057 25.1062 1.6404 25.1432 1.64023C25.3647 1.63923 25.5862 1.63824 25.8077 1.63737C26.2772 1.63554 26.7468 1.63353 27.2163 1.62809C27.2442 1.62778 27.2721 1.62747 27.3 1.62717C27.3431 1.62671 27.3862 1.62619 27.4293 1.62563C27.4449 1.62544 27.4604 1.62526 27.476 1.62509C27.5498 1.62429 27.6228 1.62285 27.6962 1.61403C27.7367 1.60976 27.7773 1.60999 27.818 1.60994C27.8272 1.6099 27.8363 1.60987 27.8458 1.60983C27.8651 1.60978 27.8843 1.60975 27.9036 1.60975C27.9324 1.60973 27.9613 1.60954 27.9901 1.60934C28.1609 1.60877 28.3276 1.6199 28.4938 1.66221C28.5049 1.66499 28.5161 1.66776 28.5276 1.67062C28.6069 1.69086 28.6831 1.71339 28.7575 1.74816C28.7674 1.75276 28.7773 1.75736 28.7876 1.7621C28.9064 1.82195 29.0122 1.9152 29.0636 2.04023C29.093 2.12995 29.1 2.21173 29.0986 2.3058C29.0986 2.31288 29.0985 2.31996 29.0985 2.32725C29.0976 2.44644 29.0839 2.55733 29.0514 2.67187C29.0492 2.68046 29.0469 2.68906 29.0446 2.69791C28.9827 2.93263 28.892 3.15582 28.789 3.37515C28.7834 3.38709 28.7779 3.39903 28.7721 3.41133C28.696 3.57405 28.6148 3.73306 28.5266 3.8895C28.5172 3.90623 28.5172 3.90623 28.5076 3.9233C28.31 4.27469 28.096 4.61487 27.8725 4.95032C27.8667 4.95896 27.861 4.9676 27.8551 4.97649C27.7789 5.09067 27.7019 5.20419 27.6238 5.31705C27.6164 5.32784 27.609 5.33862 27.6013 5.34973C27.5142 5.47573 27.4261 5.60085 27.3359 5.72469C27.3192 5.74778 27.3025 5.77092 27.2858 5.79408C27.2094 5.9002 27.1322 6.00565 27.0545 6.11079C27.0363 6.13548 27.0181 6.16021 27 6.18496C26.9284 6.28262 26.8558 6.37943 26.7822 6.47563C26.7406 6.5301 26.6992 6.58472 26.6581 6.63964C26.5885 6.73273 26.518 6.82513 26.4475 6.9175C26.4288 6.94203 26.41 6.96657 26.3913 6.99112C26.3276 7.07467 26.2634 7.15781 26.1988 7.24068C26.1397 7.3166 26.0813 7.39305 26.0229 7.46955C25.9911 7.51109 25.9592 7.55249 25.9274 7.59391C25.9108 7.61541 25.8943 7.63692 25.8777 7.65844C25.8274 7.72404 25.7767 7.78941 25.7259 7.85464C25.6609 7.93812 25.5965 8.022 25.5323 8.10615C25.5127 8.13191 25.493 8.15764 25.4733 8.18336C25.3805 8.30461 25.2891 8.42672 25.1991 8.55005C25.1935 8.55769 25.1879 8.56532 25.1822 8.57318C24.7804 9.11202 24.7804 9.11202 24.5168 9.72569C24.5121 9.74124 24.5121 9.74124 24.5074 9.7571C24.4671 9.91111 24.4619 10.1002 24.5168 10.2505C24.5212 10.2635 24.5255 10.2764 24.53 10.2898C24.6124 10.5285 24.7585 10.7254 24.9262 10.9118C24.9353 10.922 24.9444 10.9321 24.9538 10.9426C24.9829 10.9746 25.0122 11.0062 25.0416 11.0378C25.0482 11.0448 25.0548 11.0519 25.0615 11.0591C25.1965 11.2067 25.1965 11.2067 25.3421 11.3435C25.3935 11.3874 25.4402 11.4361 25.4877 11.484C25.5275 11.5241 25.5679 11.5625 25.6111 11.599C25.6388 11.6233 25.6642 11.6496 25.6898 11.6761C25.7103 11.696 25.7312 11.7148 25.7528 11.7335C25.7969 11.7719 25.8396 11.8117 25.882 11.8519C25.8978 11.8668 25.9135 11.8817 25.9292 11.8965C25.941 11.9076 25.941 11.9076 25.9529 11.9189C25.9871 11.9511 26.0215 11.9832 26.0559 12.0153C26.0623 12.0212 26.0686 12.0272 26.0752 12.0333C26.1085 12.0643 26.1418 12.0953 26.1752 12.1263C26.2361 12.1829 26.2967 12.2395 26.3549 12.2989C26.374 12.3177 26.3937 12.3352 26.4141 12.3526C26.4573 12.3901 26.498 12.4297 26.5384 12.4702C26.5458 12.4776 26.5533 12.4851 26.561 12.4928C26.5854 12.5171 26.6098 12.5416 26.6342 12.566C26.6514 12.5831 26.6685 12.6002 26.6856 12.6173C26.7214 12.6531 26.7571 12.6889 26.7929 12.7247C26.8385 12.7704 26.8842 12.816 26.93 12.8617C26.9653 12.897 27.0006 12.9323 27.0359 12.9676C27.0527 12.9845 27.0696 13.0013 27.0864 13.0181C27.11 13.0417 27.1336 13.0653 27.1572 13.089C27.164 13.0958 27.1709 13.1026 27.178 13.1097C27.2181 13.15 27.2563 13.1916 27.2934 13.2347C27.3116 13.2557 27.3309 13.2753 27.3509 13.2946C27.3835 13.3267 27.4137 13.36 27.4435 13.3947C27.4749 13.4302 27.5074 13.4647 27.5399 13.4993C27.5899 13.5527 27.6394 13.6063 27.6868 13.662C27.7074 13.686 27.7279 13.7101 27.7485 13.7341C27.754 13.7405 27.7594 13.7469 27.765 13.7535C27.7968 13.7906 27.8291 13.8272 27.862 13.8634C27.9107 13.917 27.9562 13.973 28.0017 14.0294C28.0168 14.0477 28.0319 14.0661 28.047 14.0845C28.0634 14.1046 28.0798 14.1247 28.0962 14.1448C28.1008 14.1504 28.1054 14.1561 28.1101 14.1619C28.4836 14.621 28.902 15.1556 29.0724 15.7298C29.0749 15.7381 29.0773 15.7464 29.0799 15.755C29.1207 15.9051 29.1229 16.0867 29.0724 16.2337C29.0697 16.2423 29.067 16.2509 29.0643 16.2598C28.9878 16.4796 28.7929 16.63 28.5912 16.729C28.5154 16.7649 28.4378 16.7942 28.3586 16.8215C28.352 16.8238 28.3454 16.8262 28.3386 16.8286C28.225 16.8686 28.1096 16.8918 27.9908 16.9109C27.9706 16.9142 27.9504 16.9177 27.9302 16.9213C27.8375 16.9373 27.7463 16.9405 27.6525 16.9411C27.6358 16.9413 27.619 16.9415 27.6023 16.9417C27.5571 16.9422 27.5119 16.9426 27.4667 16.943C27.4188 16.9434 27.3708 16.944 27.3228 16.9445C27.2315 16.9455 27.1403 16.9464 27.049 16.9472C26.8778 16.9488 26.7066 16.9507 26.5354 16.9525C26.4962 16.9529 26.457 16.9533 26.4178 16.9537C26.1728 16.9562 25.9279 16.9596 25.6829 16.9648C25.5378 16.9679 25.3928 16.97 25.2478 16.9714C25.2373 16.9715 25.2269 16.9716 25.2161 16.9717C25.1324 16.9725 25.0486 16.9732 24.9649 16.974C24.6841 16.9764 24.4035 16.9804 24.1228 16.9869C24.0465 16.9887 23.9702 16.9904 23.8939 16.9918C23.885 16.9919 23.8761 16.9921 23.8669 16.9923C23.6783 16.9956 23.5039 16.9839 23.3202 16.937C23.2991 16.932 23.278 16.927 23.257 16.922C22.6323 16.7712 22.0908 16.401 21.6275 15.9673C21.6076 15.9488 21.5877 15.9303 21.5678 15.9118C21.3507 15.7098 21.3507 15.7098 21.2611 15.6045C21.2365 15.5769 21.2104 15.5511 21.1841 15.5251C21.1455 15.487 21.1085 15.4481 21.0733 15.4068C21.0461 15.3757 21.018 15.3455 20.9899 15.3152C20.9336 15.2545 20.8787 15.1928 20.8251 15.1297C20.8144 15.1172 20.8037 15.1047 20.7931 15.0922C20.7877 15.0858 20.7823 15.0795 20.7767 15.073C20.7412 15.0315 20.7049 14.9911 20.6678 14.9511C20.6322 14.9128 20.5982 14.8738 20.5654 14.833C20.5251 14.7828 20.4821 14.7358 20.4382 14.6889C20.4059 14.6542 20.3752 14.6188 20.3457 14.5818C20.295 14.5185 20.2395 14.4602 20.1839 14.4013C20.1537 14.3692 20.1245 14.3363 20.0957 14.3029C20.0541 14.2556 20.0109 14.2096 19.968 14.1635C19.9508 14.1449 19.9337 14.1263 19.9166 14.1077C19.8476 14.0329 19.7772 13.9597 19.7054 13.8877C19.6976 13.8799 19.6899 13.8721 19.6819 13.8641C19.639 13.8213 19.5951 13.7804 19.5492 13.7409C19.5271 13.7217 19.5057 13.7017 19.4843 13.6817C19.1944 13.4207 18.8774 13.2275 18.4786 13.2403C18.4214 13.2439 18.3746 13.2587 18.3237 13.2841C18.3124 13.2896 18.301 13.295 18.2893 13.3007C18.2175 13.3372 18.1539 13.3787 18.0928 13.431C18.0844 13.4379 18.076 13.4448 18.0674 13.4519C17.5902 13.8579 17.4652 14.6647 17.4105 15.247C17.4062 15.3055 17.4034 15.364 17.4017 15.4226C17.4002 15.4436 17.3976 15.4646 17.3948 15.4855C17.389 15.5304 17.3877 15.5748 17.3873 15.62C17.387 15.6372 17.3868 15.6544 17.3865 15.6716C17.3863 15.6805 17.3862 15.6894 17.386 15.6985C17.381 15.9949 17.3728 16.3493 17.1586 16.5801C17.1479 16.592 17.1479 16.592 17.137 16.6041C17.0222 16.7261 16.8669 16.8015 16.7098 16.855C16.703 16.8573 16.6961 16.8597 16.6891 16.8621C16.5259 16.9151 16.3721 16.9326 16.2015 16.9316C16.1798 16.9316 16.1582 16.9316 16.1366 16.9317C16.0785 16.9318 16.0203 16.9316 15.9622 16.9314C15.9009 16.9312 15.8396 16.9313 15.7783 16.9313C15.6753 16.9313 15.5723 16.9311 15.4693 16.9308C15.351 16.9305 15.2326 16.9303 15.1142 16.9304C14.9874 16.9304 14.8605 16.9302 14.7336 16.93C14.6974 16.93 14.6613 16.93 14.6251 16.93C14.1379 16.9297 14.1379 16.9297 13.9151 16.9055C13.9057 16.9045 13.8962 16.9035 13.8865 16.9025C13.828 16.8963 13.7695 16.8894 13.7111 16.8819C13.7023 16.8807 13.6935 16.8796 13.6844 16.8785C13.3692 16.8382 13.0592 16.7792 12.7499 16.706C12.7431 16.7044 12.7362 16.7028 12.7291 16.7011C12.2125 16.5785 11.7061 16.4096 11.2174 16.2022C11.2101 16.1991 11.2028 16.196 11.1953 16.1928C10.8487 16.0454 10.5071 15.8821 10.1819 15.6916C10.1495 15.6729 10.1167 15.655 10.0838 15.6371C9.98391 15.5826 9.88803 15.5228 9.79234 15.4614C9.7707 15.4476 9.74895 15.434 9.72709 15.4206C9.4235 15.2343 9.1299 15.0244 8.85326 14.8001C8.8285 14.7802 8.80346 14.7607 8.77839 14.7412C8.70676 14.6854 8.63711 14.6277 8.56818 14.5686C8.55113 14.5541 8.53398 14.5397 8.5168 14.5253C8.44865 14.4683 8.38234 14.4097 8.31712 14.3493C8.2942 14.3282 8.27106 14.3075 8.24749 14.2872C8.14799 14.2006 8.05302 14.1098 7.96062 14.0157C7.92704 13.9816 7.89302 13.949 7.85678 13.9177C7.82282 13.8885 7.79243 13.8576 7.76267 13.824C7.71269 13.7682 7.66045 13.7151 7.6069 13.6627C7.56919 13.6256 7.53396 13.587 7.49936 13.547C7.46781 13.5109 7.43478 13.4763 7.40185 13.4415C7.32899 13.3646 7.25939 13.2853 7.1906 13.2047C7.15125 13.1587 7.11175 13.1128 7.07204 13.0671C6.97898 12.96 6.88668 12.8528 6.79962 12.7407C6.76672 12.6985 6.73272 12.6575 6.69791 12.6169C6.65077 12.5618 6.60617 12.5052 6.56231 12.4475C6.53532 12.412 6.50775 12.377 6.4801 12.342C6.42026 12.2661 6.36154 12.1893 6.30297 12.1124C6.28257 12.0857 6.2621 12.059 6.24163 12.0323C6.1676 11.9356 6.09461 11.8386 6.02449 11.7391C5.99817 11.7019 5.97144 11.6651 5.94477 11.6282C5.93903 11.6203 5.93329 11.6123 5.92738 11.6042C5.89817 11.5637 5.86892 11.5233 5.8396 11.483C5.78102 11.4023 5.72317 11.3213 5.66698 11.2389C5.63531 11.1925 5.60319 11.1465 5.57081 11.1006C5.48888 10.9843 5.40977 10.8663 5.3312 10.7477C5.30597 10.7097 5.2806 10.6717 5.25522 10.6337C5.09851 10.3993 4.94496 10.163 4.79341 9.92513C4.78779 9.91632 4.78218 9.90752 4.77639 9.89845C4.68985 9.76254 4.60543 9.62536 4.52117 9.48803C4.49996 9.45352 4.47866 9.41907 4.45735 9.38463C4.36467 9.23481 4.27407 9.08387 4.18464 8.93209C4.16358 8.89641 4.14243 8.86079 4.12124 8.82518C4.04526 8.69744 3.97003 8.5693 3.89597 8.44043C3.85859 8.37538 3.82092 8.31053 3.78293 8.24584C3.71076 8.12287 3.64106 7.99866 3.57209 7.87387C3.53721 7.81081 3.50181 7.74805 3.46622 7.68538C3.35086 7.48186 3.2384 7.27678 3.12829 7.07038C3.08853 6.99587 3.0483 6.92164 3.00764 6.84761C2.95719 6.75564 2.90865 6.66276 2.86053 6.56955C2.82308 6.49722 2.78456 6.42558 2.74523 6.35426C2.69798 6.26848 2.65336 6.18167 2.60995 6.09389C2.5809 6.0352 2.55105 5.97707 2.5202 5.9193C2.45956 5.80548 2.40254 5.68982 2.34526 5.57428C2.30515 5.49353 2.26427 5.4133 2.22199 5.33366C2.17348 5.24217 2.12767 5.14953 2.08266 5.05628C2.06108 5.01156 2.03939 4.9669 2.01771 4.92224C2.0135 4.91356 2.00929 4.90489 2.00496 4.89595C1.97275 4.82963 1.93999 4.76359 1.9068 4.69775C1.8555 4.59576 1.80607 4.49296 1.75712 4.38983C1.73969 4.35311 1.72221 4.31641 1.70473 4.27971C1.59966 4.05912 1.4951 3.83831 1.39246 3.61658C1.38907 3.60927 1.38569 3.60196 1.3822 3.59444C1.27081 3.35395 1.1615 3.11261 1.05476 2.87003C1.04669 2.85174 1.03858 2.83347 1.03047 2.8152C0.920809 2.56828 0.805205 2.2653 0.908868 1.99569C0.984272 1.84462 1.13441 1.76477 1.28815 1.71339C1.48883 1.64934 1.68337 1.62944 1.89266 1.62648C1.91566 1.6261 1.93866 1.6257 1.96165 1.62531C2.24981 1.62059 2.53801 1.61887 2.8262 1.61705C2.90934 1.61652 2.99248 1.61595 3.07562 1.61539C3.22449 1.61437 3.37336 1.61339 3.52223 1.61243C3.66503 1.61151 3.80783 1.61057 3.95063 1.6096C3.95942 1.60954 3.96822 1.60948 3.97729 1.60941C3.98607 1.60935 3.99486 1.60929 4.00391 1.60923C4.16885 1.60811 4.3338 1.60701 4.49874 1.60592C4.548 1.6056 4.59725 1.60527 4.64651 1.60493C4.68603 1.60466 4.72555 1.6044 4.76507 1.60413C4.77276 1.60408 4.78045 1.60403 4.78838 1.60398C4.87074 1.60343 4.9531 1.60292 5.03546 1.60252C5.04616 1.60247 5.04616 1.60247 5.05707 1.60242C5.08544 1.60228 5.11382 1.60214 5.14219 1.60201C5.23107 1.6016 5.31994 1.6009 5.40882 1.59989C5.46002 1.59934 5.51122 1.59896 5.56242 1.59862C5.58586 1.59842 5.60931 1.59815 5.63275 1.59779C5.81008 1.59514 5.96447 1.61582 6.13043 1.68124C6.13954 1.68479 6.14865 1.68833 6.15804 1.69198C6.29711 1.74764 6.43592 1.81318 6.54636 1.91611C6.55425 1.92317 6.56214 1.93023 6.57027 1.93751C6.63611 1.99941 6.688 2.07028 6.7353 2.14703C6.74144 2.15694 6.74757 2.16685 6.75389 2.17705C6.81017 2.27147 6.85305 2.36911 6.89406 2.47097C6.91335 2.51885 6.933 2.56658 6.95258 2.61434C6.95647 2.62385 6.96035 2.63335 6.96435 2.64314C7.01877 2.77613 7.0761 2.90784 7.13418 3.03926C7.13754 3.04686 7.1409 3.05445 7.14436 3.06228C7.23807 3.27413 7.33336 3.48517 7.43216 3.69469C7.45061 3.73386 7.46891 3.7731 7.48708 3.81241C7.57696 4.00682 7.67099 4.19906 7.76661 4.39072C7.77232 4.40218 7.77802 4.41365 7.7839 4.42546C7.85302 4.56422 7.92441 4.70136 7.99922 4.83713C8.02993 4.8929 8.05917 4.94936 8.08807 5.00609C8.13747 5.1019 8.19053 5.19513 8.24533 5.28793C8.28399 5.35345 8.32142 5.41945 8.35771 5.48631C8.41305 5.58795 8.47165 5.68745 8.53096 5.78681C8.55365 5.82493 8.57619 5.86313 8.59872 5.90135C8.69374 6.06234 8.7904 6.22201 8.89017 6.38012C8.91335 6.41702 8.93621 6.45411 8.95905 6.49122C9.07492 6.67943 9.19353 6.86603 9.31751 7.04902C9.32727 7.06346 9.32727 7.06346 9.33722 7.0782C9.5889 7.45057 9.84597 7.82667 10.1534 8.15593C10.1737 8.17777 10.1931 8.19993 10.2124 8.22269C10.3066 8.33097 10.4106 8.43137 10.5246 8.51856C10.5349 8.52652 10.5451 8.53448 10.5557 8.54267C10.7429 8.68591 10.943 8.80157 11.1859 8.78098C11.3421 8.75136 11.4666 8.68391 11.562 8.55571C12.0007 7.89618 11.9964 6.88218 11.9956 6.11784C11.9956 6.09447 11.9956 6.07109 11.9956 6.04772C11.9956 5.99897 11.9956 5.95022 11.9955 5.90148C11.9955 5.84037 11.9955 5.77926 11.9956 5.71815C11.9958 5.48915 11.9953 5.26021 11.9895 5.03126C11.9893 5.02298 11.9891 5.01469 11.9889 5.00615C11.9865 4.911 11.9826 4.81603 11.9768 4.72102C11.9729 4.65625 11.9714 4.59154 11.9701 4.52667C11.958 3.90215 11.9206 3.08352 11.4798 2.59839C11.475 2.593 11.4701 2.5876 11.465 2.58204C11.1867 2.27826 10.7465 2.10867 10.3427 2.06516C10.3037 2.06009 10.2832 2.05257 10.2519 2.02813C10.2307 2.00008 10.2307 2.00008 10.2261 1.97798C10.2454 1.85216 10.3204 1.76021 10.3987 1.66418C10.4053 1.65601 10.412 1.64784 10.4188 1.63942C10.4606 1.59001 10.5066 1.54818 10.5561 1.50673C10.5653 1.49874 10.5745 1.49074 10.5839 1.4825C10.9729 1.1483 11.4961 1.03105 11.9942 0.971397C12.0013 0.970527 12.0084 0.969656 12.0158 0.968759C12.261 0.938787 12.5061 0.919985 12.753 0.910695C12.7835 0.909543 12.8141 0.908368 12.8447 0.907122C13.0646 0.898221 13.2841 0.896343 13.5041 0.89651Z"
      fill="#262A39" />
  </symbol>

  <symbol id="telegram" viewBox="0 0 24 21">
    <path
      d="M23.2075 1.0441C23.4692 1.21655 23.5523 1.33655 23.6898 1.61548C23.904 2.79917 23.4531 4.08111 23.1866 5.22203C23.1288 5.47341 23.0713 5.72485 23.0139 5.97631C22.979 6.1293 22.9439 6.28225 22.9087 6.43516C22.8076 6.87671 22.7164 7.31865 22.6362 7.76443C22.5537 8.22119 22.4569 8.67125 22.3478 9.12213C22.2285 9.61614 22.1258 10.1101 22.0355 10.6104C21.8766 11.477 21.6818 12.3366 21.4958 13.1977C21.3873 13.7016 21.2804 14.2058 21.1736 14.7101C21.1369 14.8832 21.1001 15.0564 21.0634 15.2295C20.9477 15.774 20.8326 16.3186 20.7191 16.8636C20.6667 17.1146 20.6141 17.3657 20.5615 17.6167C20.5366 17.7355 20.5119 17.8544 20.4873 17.9733C20.0905 19.8926 20.0905 19.8926 19.58 20.4031C19.2575 20.5644 18.9238 20.542 18.5735 20.4869C18.2331 20.3402 17.946 20.121 17.6509 19.8998C17.5919 19.8562 17.5328 19.8125 17.472 19.7675C17.1179 19.5053 16.7656 19.2409 16.4145 18.9749C16.0006 18.6616 15.5842 18.3519 15.1662 18.0441C15.0696 17.973 15.0696 17.973 14.971 17.9004C14.2739 17.3882 13.5725 16.8821 12.8702 16.3772C12.5212 16.6699 12.1871 16.9679 11.8689 17.2945C11.5723 17.5947 11.2687 17.8765 10.9476 18.15C10.6601 18.4077 10.3948 18.6875 10.1273 18.9658C9.80578 19.2648 9.61299 19.3208 9.17975 19.3127C9.17544 18.3418 9.19478 17.3744 9.24476 16.4048C9.25381 16.2053 9.26035 16.0058 9.26434 15.8061C9.3036 13.9681 9.3036 13.9681 10.0103 13.2567C10.2507 13.0435 10.4978 12.8457 10.7572 12.6562C11.2383 12.2973 11.6748 11.8776 12.1153 11.4706C12.3902 11.2173 12.666 10.9655 12.9488 10.721C13.2997 10.417 13.6388 10.1006 13.9792 9.78495C14.2717 9.51409 14.5684 9.2492 14.87 8.98846C15.1157 8.7713 15.3557 8.54827 15.596 8.32534C15.9387 8.00755 16.2841 7.69447 16.6376 7.38864C16.9074 7.15123 17.1712 6.90724 17.4357 6.66395C17.7053 6.41601 17.9762 6.16944 18.2485 5.92447C18.3486 5.8343 18.3486 5.8343 18.4507 5.7423C18.5973 5.61123 18.7449 5.48115 18.893 5.35177C19.0073 5.25122 19.0073 5.25122 19.124 5.14864C19.2279 5.05815 19.2279 5.05815 19.334 4.96582C19.5152 4.80769 19.5152 4.80769 19.58 4.55104C19.0382 4.46973 18.6976 4.75013 18.2643 5.03331C18.148 5.10734 18.148 5.10734 18.0294 5.18286C17.8689 5.28516 17.7086 5.38792 17.5487 5.49114C17.2683 5.67178 16.9861 5.84946 16.7037 6.02693C16.507 6.15063 16.3106 6.27483 16.1144 6.3992C15.7182 6.65026 15.3217 6.90073 14.9251 7.15111C14.5315 7.39962 14.1379 7.64819 13.7446 7.89712C12.9213 8.41801 12.0959 8.93549 11.2694 9.45144C10.553 9.89892 9.8384 10.3493 9.12463 10.8011C8.77442 11.0227 8.42404 11.244 8.07367 11.4653C8.00942 11.506 7.94516 11.5466 7.87896 11.5884C7.75662 11.6657 7.63398 11.7425 7.51101 11.8188C7.39263 11.8947 7.27655 11.9742 7.16298 12.0571C7.07973 12.1159 7.07973 12.1159 6.99479 12.176C6.94697 12.2117 6.89914 12.2473 6.84987 12.2841C6.31998 12.4751 5.65693 12.1799 5.14565 12.0171C5.06581 11.9921 4.98596 11.9672 4.9037 11.9415C4.64967 11.8619 4.3959 11.7816 4.14212 11.7012C3.974 11.6485 3.80588 11.5959 3.63773 11.5433C3.23629 11.4175 2.83534 11.2902 2.43465 11.1621C2.23508 11.0985 2.03524 11.0359 1.83532 10.9734C1.72367 10.9378 1.61205 10.9021 1.50044 10.8664C1.36009 10.8221 1.36009 10.8221 1.2169 10.7769C0.931113 10.6621 0.701738 10.5249 0.45694 10.3383C0.357341 10.0972 0.357341 10.0972 0.373067 9.83505C0.674162 9.39355 0.970643 9.2082 1.45883 9.0091C1.52465 8.9811 1.59047 8.95309 1.65828 8.92424C2.39498 8.61439 3.14178 8.32915 3.88932 8.04669C4.23443 7.91629 4.57918 7.78493 4.92396 7.65365C5.10253 7.58568 5.28111 7.51775 5.45971 7.44987C6.32882 7.11945 7.19613 6.78443 8.06319 6.44867C8.36809 6.33069 8.673 6.21275 8.97793 6.09483C9.05486 6.06509 9.13179 6.03534 9.21105 6.00469C10.1699 5.63409 11.1295 5.2657 12.0891 4.89702C13.4343 4.38016 14.7787 3.86127 16.122 3.33956C16.3751 3.24132 16.6282 3.14323 16.8814 3.0452C16.9644 3.01304 17.0474 2.98088 17.133 2.94775C17.3006 2.88286 17.4681 2.81797 17.6357 2.75308C18.1706 2.54583 18.7049 2.33731 19.2391 2.12816C19.6039 1.9855 19.9691 1.84366 20.3343 1.70198C20.5077 1.63449 20.6811 1.56664 20.8542 1.49843C21.0934 1.40428 21.3329 1.31137 21.5727 1.21872C21.6428 1.19076 21.7129 1.16281 21.7852 1.134C22.2815 0.94426 22.6909 0.855322 23.2075 1.0441Z"
      fill="#262A39" />
  </symbol>

  <symbol viewBox="0 0 24 24" id="engenier">
    <path d="M1.915 20.192v-1.646q0-.652.348-1.165q.349-.514.983-.831q1.217-.612 2.702-.985t2.967-.373t2.968.373t2.702.985q.634.317.982.83q.348.514.348 1.166v1.646zm1-1h12v-.646q0-.41-.233-.673t-.574-.446q-.939-.489-2.351-.862t-2.842-.373t-2.841.373t-2.35.862q-.341.183-.575.446q-.234.264-.234.673zm6-6.23q-1.284 0-2.142-.858t-.858-2.258H5.32v-.77h.596q.039-.759.32-1.38t.911-1.184v1.334h.77V6.15q.205-.075.465-.132t.534-.056t.535.056t.465.132v1.696h.77V6.512q.65.563.92 1.184t.31 1.38h.597v.77h-.597q0 1.4-.857 2.258t-2.143.858m0-1q.864 0 1.432-.569q.568-.568.568-1.431h-4q0 .863.569 1.431q.568.569 1.431.569m7.539 2.884l-.073-.711q-.189-.05-.393-.16t-.35-.256l-.661.289l-.385-.67l.589-.423q-.039-.113-.039-.207v-.406q0-.085.039-.217l-.589-.423l.385-.67l.661.289q.139-.139.347-.252t.396-.164l.073-.711h.77l.072.711q.189.05.396.164t.346.252l.662-.289l.385.67l-.589.423q.039.132.039.217v.406q0 .094-.039.207l.589.423l-.385.67l-.662-.289q-.144.144-.349.255t-.393.16l-.073.712zm.384-1.442q.377 0 .64-.264t.264-.64t-.263-.64t-.64-.264t-.64.264t-.264.64t.263.64t.64.264m2.031-3.98l-.084-.782q-.283-.055-.596-.226T17.69 8l-.743.312l-.43-.739l.657-.48q-.05-.145-.07-.297t-.018-.296t.019-.296t.07-.296l-.659-.481l.431-.739l.742.312q.189-.246.501-.416t.596-.226l.084-.781h.862l.084.78q.283.056.596.227t.5.416l.743-.312l.43.739l-.657.48q.05.145.07.297t.018.296t-.019.296t-.07.296l.659.481l-.431.739L20.912 8q-.189.246-.501.416t-.596.226l-.084.781zm.431-1.559q.583 0 .974-.391t.391-.974t-.39-.974t-.975-.391t-.974.391t-.391.974t.391.974t.974.391M8.915 19.192"/>
  </symbol>

  <symbol id="plus" viewBox="0 0 24 24">
    <path fill="none" stroke="currentColor" stroke-linecap="round" stroke-width="2" d="M12 20v-8m0 0V4m0 8h8m-8 0H4"/>
  </symbol>

  <symbol id="truck-line" viewBox="0 0 36 36" >
    <path d="M30 12h-4V7a1 1 0 0 0-1-1H3a1 1 0 0 0-1 1v18a1 1 0 0 0 1 1h1V8h20v11.7a6.45 6.45 0 0 1 1.56-.2H26V14h4a2 2 0 0 1 2 2v1h-4v2h4v5h-2.4a4.54 4.54 0 0 0-8.34 0h-6.83a4.5 4.5 0 0 0-4.17-2.76A4.38 4.38 0 1 0 14.72 26H21a4.49 4.49 0 0 0 8.92 0H33a1 1 0 0 0 1-1v-9a4 4 0 0 0-4-4M10.26 28a2.38 2.38 0 1 1 0-4.75a2.38 2.38 0 1 1 0 4.75m15.17 0a2.38 2.38 0 1 1 2.5-2.37a2.44 2.44 0 0 1-2.5 2.37" class="clr-i-outline clr-i-outline-path-1"/>
  </symbol>

  <symbol viewBox="0 0 24 24" id="_cube">
    <path d="m21.406 6.086l-9-4a1.001 1.001 0 0 0-.813 0l-9 4c-.02.009-.034.024-.054.035c-.028.014-.058.023-.084.04c-.022.015-.039.034-.06.05a.87.87 0 0 0-.19.194c-.02.028-.041.053-.059.081a1.119 1.119 0 0 0-.076.165c-.009.027-.023.052-.031.079A1.013 1.013 0 0 0 2 7v10c0 .396.232.753.594.914l9 4c.13.058.268.086.406.086a.997.997 0 0 0 .402-.096l.004.01l9-4A.999.999 0 0 0 22 17V7a.999.999 0 0 0-.594-.914M12 4.095L18.538 7L12 9.905l-1.308-.581L5.463 7zM4 16.351V8.539l7 3.111v7.811zm9 3.11V11.65l7-3.111v7.812z"/>
  </symbol>
  <symbol viewBox="0 0 2048 2048" id="cube">
    <path d="M1792 569v1038l-832 417l-832-417V569l832-417zM960 296L335 608l625 312l625-312zM256 1528l640 321v-817L256 711zm1408 0V711l-640 321v817z"/>
  </symbol>


  <symbol viewBox="0 0 24 24" id="calendar">
    <path fill="none" stroke-linecap="round" stroke-linejoin="round" stroke-width="2" d="M4 8h16M4 8v8.8c0 1.12 0 1.68.218 2.108a2 2 0 0 0 .874.874c.427.218.987.218 2.105.218h9.606c1.118 0 1.677 0 2.104-.218c.377-.192.683-.498.875-.874c.218-.428.218-.986.218-2.104V8M4 8v-.8c0-1.12 0-1.68.218-2.108c.192-.377.497-.682.874-.874C5.52 4 6.08 4 7.2 4H8m12 4v-.803c0-1.118 0-1.678-.218-2.105a2.001 2.001 0 0 0-.875-.874C18.48 4 17.92 4 16.8 4H16M8 4h8M8 4V2m8 2V2m-1 10l-4 4l-2-2"/>
  </symbol>

  <symbol viewBox="0 0 24 24" id="phone">
    <path fill="currentColor" d="M12.923 11.077v-5h1v3.292l5.462-5.461l.707.707l-5.461 5.462h3.292v1zM18.931 20q-2.53 0-5.185-1.266q-2.656-1.267-4.934-3.555t-3.546-4.935T4 5.07q0-.458.3-.764T5.05 4h2.473q.408 0 .712.257t.411.658L9.142 7.3q.07.42-.025.733q-.094.313-.332.513L6.59 10.592q.616 1.118 1.361 2.076q.745.959 1.59 1.817q.87.87 1.874 1.62q1.004.749 2.204 1.414l2.139-2.177q.244-.263.549-.347t.674-.033l2.104.43q.407.1.661.41q.254.311.254.713v2.435q0 .45-.306.75q-.305.3-.763.3M6.12 9.654l1.92-1.766q.096-.076.124-.211t-.01-.25l-.443-2.12q-.039-.153-.135-.23T7.327 5H5.275q-.115 0-.192.077t-.077.192q.029 1.025.32 2.14t.795 2.245m8.45 8.334q1.014.502 2.16.743t2 .257q.115 0 .192-.076t.077-.193v-2.007q0-.154-.077-.25t-.23-.135l-1.85-.379q-.116-.038-.203-.01t-.182.125zm0 0"/>
  </symbol>

  <symbol viewBox="0 0 24 24" id="mail">
    <path fill="currentColor" d="M4.615 19q-.69 0-1.152-.462T3 17.385V6.615q0-.69.463-1.152T4.615 5h14.77q.69 0 1.152.463T21 6.615v10.77q0 .69-.462 1.152T19.385 19zM12 12.115l-8-5.23v10.5q0 .269.173.442t.442.173h14.77q.269 0 .442-.173t.173-.442v-10.5zM12 11l7.692-5H4.308zM4 6.885V6v11.385q0 .269.173.442t.442.173H4z"/>
  </symbol>

  <symbol viewBox="0 0 24 24" id="location">
    <path fill="currentColor" d="M12.003 11.73q.668 0 1.14-.475t.472-1.143t-.475-1.14t-1.143-.472t-1.14.476t-.472 1.143t.475 1.14t1.143.472M12 19.677q2.82-2.454 4.458-4.991t1.638-4.39q0-2.744-1.737-4.53T12 3.981T7.641 5.766t-1.737 4.53q0 1.852 1.638 4.39q1.639 2.537 4.458 4.99m0 1.343q-3.525-3.117-5.31-5.814q-1.786-2.697-1.786-4.909q0-3.173 2.066-5.234T12 3t5.03 2.062t2.066 5.234q0 2.212-1.785 4.909q-1.786 2.697-5.311 5.814m0-10.904"/>
  </symbol>
</svg>
