<svg version="1.0" xmlns="http://www.w3.org/2000/svg" width="682.667" height="682.667" viewBox="0 0 512 512"><path d="m68 63.9-3 2.9v219.3l-4.8 4.7c-6.1 6-7.2 9.8-7.2 25.1V328h262.5l55.5-95.8c30.5-52.6 58.3-100.5 61.7-106.4l6.3-10.7 4.1 1.4c2.3.8 6.1 1.5 8.5 1.5 3.7 0 4.4.3 4.9 2.2.6 2.8 23.5 156.5 23.5 157.8 0 1.5-16.9 20.8-26.6 30.5-11.8 11.8-22.5 20.1-31.1 24.2-8.4 4-14.1 4.6-20 1.9-6.8-3-12.3-.4-12.3 5.9 0 4.2 6.9 13.8 14.2 19.6 20.3 16.2 48.2 16.7 71.3 1.3 27.4-18.1 36.2-48.9 22.4-78.1-2.7-5.6-4-13.3-15.3-88.9l-12.4-82.8 2.9-3.7c4.5-5.7 5.9-10.1 5.9-18.1 0-8.5-2-13.5-7.3-18.9-5.7-5.8-12-8.4-20.2-8.4-11.4.1-20.5 5.7-25.5 15.9-2.3 4.8-2.7 15.4-.9 21.7 1.2 3.7 1.1 3.9-12.8 28.1-7.7 13.4-32.1 55.8-54.3 94.3-22.1 38.5-41 71.3-41.9 72.8l-1.8 2.8-2.6-3.9c-1.4-2.2-4.1-4.9-5.9-6l-3.3-2.1-9.8-86.5c-5.5-47.6-10.6-89.2-11.4-92.3-2.5-9.9-8-19.1-16.3-27.4-8.3-8.3-13.7-11.7-25-15.7l-7.5-2.7-80.8-.3-80.8-.3-2.9 3zm169.2 15.9c11.9 4.8 22.5 15.4 26.8 26.9 1.7 4.6 3.9 21.2 10.5 80.3 4.7 41 8.7 76 8.9 77.9.5 3.4.5 3.4-1.3 1.5-1.9-1.9-37.1-47-38.4-49-.4-.7 1-2.3 3.2-3.8 4.8-3.3 6.6-7.2 5.2-10.9-1.1-2.9-3.9-4.7-7.4-4.7-2.3 0-28.7 18.3-31.4 21.8-3.3 4.2.7 12.2 6.1 12.2 1.3 0 4.6-1.6 7.1-3.6 2.6-1.9 4.8-3.4 4.9-3.2 2.1 2.7 36.3 47 39.9 51.5l4.9 6.3H141v-41h12.4c10.6 0 12.7-.3 14.7-1.9 2.9-2.3 3.1-8.1.5-11-1.8-2-3.2-2.1-25.5-2.3l-23.6-.3-8.8-21.5c-4.8-11.8-9.6-22.4-10.7-23.4-2.8-2.9-7.8-2.5-10.7.8-1.2 1.5-2.3 3.5-2.3 4.4 0 3 20.9 52.6 22.7 53.9 1 .8 4.7 1.3 9 1.3h7.3v41H80V76.9l75.8.3 75.7.3 5.7 2.3z"/><path d="M50 343.6c-9.7 2.1-18.5 7-26 14.4-10.6 10.5-16 23.3-16 37.8 0 24.8 14.3 44.4 38.7 53 4.4 1.5 15.8 1.7 134.5 1.9 143.1.4 137.6.6 150.7-5.8 8.6-4.2 18.8-14.4 23-23 10.6-21.7 6.4-45.9-11.3-63.5-7.9-7.8-15.9-12.3-26.7-14.9-9.2-2.1-256.8-2.1-266.9.1zm25.2 28c5.8 1.9 12.3 7.4 14.9 12.7 1.2 2.2 2.4 6.6 2.6 9.7 2.2 23.7-25.2 37.7-43 22-6.2-5.5-9.1-11.7-9.1-19.6 0-18.1 17.6-30.6 34.6-24.8zm81.5 1.2c9.4 4.8 14.2 12.7 14.3 23.2 0 12-7.4 22.3-18.4 25.5-6.2 1.9-9 1.9-15.2 0-17.8-5.3-24.4-28.1-12.1-42.1 3.8-4.3 7.5-6.8 12.7-8.5 4.2-1.4 14.2-.3 18.7 1.9zm74.9-1.3c19.4 5.8 24.1 31.3 8.2 44.9-8.4 7.3-19.7 8.2-29.6 2.5-15-8.5-17.6-28.6-5.3-40.9 7.4-7.4 16.4-9.6 26.7-6.5zm81.1 1.3c5.2 2.7 11.6 10 13.1 15 4.3 14.4-3.4 29.6-16.9 33.6-6.7 2-9.4 2-15.8-.1-17.8-5.7-24.1-28-11.8-41.9 3.8-4.3 7.5-6.8 12.7-8.5 4.2-1.4 14.2-.3 18.7 1.9z"/></svg>